<svg width="1728" height="46" viewBox="0 0 1728 46" fill="none" xmlns="http://www.w3.org/2000/svg">
<rect width="1728" height="46" fill="white"/>
<line x1="29.5" y1="46" x2="29.5" y2="41" stroke="black" stroke-opacity="0.4"/>
<line x1="34.5" y1="46" x2="34.5" y2="41" stroke="black" stroke-opacity="0.4"/>
<line x1="39.5" y1="46" x2="39.5" y2="41" stroke="black" stroke-opacity="0.4"/>
<line x1="44.5" y1="46" x2="44.5" y2="41" stroke="black" stroke-opacity="0.4"/>
<line x1="49.5" y1="46" x2="49.5" y2="33" stroke="black" stroke-opacity="0.4"/>
<line x1="54.5" y1="46" x2="54.5" y2="41" stroke="black" stroke-opacity="0.4"/>
<line x1="59.5" y1="46" x2="59.5" y2="41" stroke="black" stroke-opacity="0.4"/>
<line x1="64.5" y1="46" x2="64.5" y2="41" stroke="black" stroke-opacity="0.4"/>
<line x1="69.5" y1="46" x2="69.5" y2="41" stroke="black" stroke-opacity="0.4"/>
<line x1="74.5" y1="46" x2="74.5" y2="23" stroke="black" stroke-opacity="0.4"/>
<path d="M68.9306 8.72V17H67.8986V9.812L65.6186 11.168V10.076L67.3706 8.984C67.6946 8.78 67.9826 8.72 68.2706 8.72H68.9306ZM74.4995 8.552C76.7795 8.552 77.4875 10.448 77.4875 12.86C77.4875 15.26 76.7795 17.168 74.4995 17.168C72.2195 17.168 71.5115 15.26 71.5115 12.86C71.5115 10.448 72.2195 8.552 74.4995 8.552ZM74.4995 16.352C75.8195 16.352 76.3355 15.02 76.3355 12.86C76.3355 10.688 75.8195 9.368 74.4995 9.368C73.1795 9.368 72.6635 10.688 72.6635 12.86C72.6635 15.02 73.1795 16.352 74.4995 16.352ZM81.4605 8.552C83.7405 8.552 84.4485 10.448 84.4485 12.86C84.4485 15.26 83.7405 17.168 81.4605 17.168C79.1805 17.168 78.4725 15.26 78.4725 12.86C78.4725 10.448 79.1805 8.552 81.4605 8.552ZM81.4605 16.352C82.7805 16.352 83.2965 15.02 83.2965 12.86C83.2965 10.688 82.7805 9.368 81.4605 9.368C80.1405 9.368 79.6245 10.688 79.6245 12.86C79.6245 15.02 80.1405 16.352 81.4605 16.352Z" fill="black" fill-opacity="0.4"/>
<line x1="79.5" y1="46" x2="79.5" y2="41" stroke="black" stroke-opacity="0.4"/>
<line x1="84.5" y1="46" x2="84.5" y2="41" stroke="black" stroke-opacity="0.4"/>
<line x1="89.5" y1="46" x2="89.5" y2="41" stroke="black" stroke-opacity="0.4"/>
<line x1="94.5" y1="46" x2="94.5" y2="41" stroke="black" stroke-opacity="0.4"/>
<line x1="99.5" y1="46" x2="99.5" y2="33" stroke="black" stroke-opacity="0.4"/>
<line x1="104.5" y1="46" x2="104.5" y2="41" stroke="black" stroke-opacity="0.4"/>
<line x1="109.5" y1="46" x2="109.5" y2="41" stroke="black" stroke-opacity="0.4"/>
<line x1="114.5" y1="46" x2="114.5" y2="41" stroke="black" stroke-opacity="0.4"/>
<line x1="119.5" y1="46" x2="119.5" y2="41" stroke="black" stroke-opacity="0.4"/>
<line x1="124.5" y1="46" x2="124.5" y2="23" stroke="black" stroke-opacity="0.4"/>
<path d="M116.279 16.16H120.335V17H114.779V16.412L117.779 13.352C118.751 12.356 119.219 11.756 119.219 10.952C119.219 10.1 118.727 9.368 117.731 9.368C116.663 9.368 116.147 10.028 116.027 11.192L116.015 11.312H114.983L114.995 11.192C115.163 9.464 116.195 8.552 117.851 8.552C119.543 8.552 120.371 9.596 120.371 10.832C120.371 11.96 119.759 12.728 118.355 14.108L116.279 16.16ZM124.5 8.552C126.78 8.552 127.488 10.448 127.488 12.86C127.488 15.26 126.78 17.168 124.5 17.168C122.22 17.168 121.512 15.26 121.512 12.86C121.512 10.448 122.22 8.552 124.5 8.552ZM124.5 16.352C125.82 16.352 126.336 15.02 126.336 12.86C126.336 10.688 125.82 9.368 124.5 9.368C123.18 9.368 122.664 10.688 122.664 12.86C122.664 15.02 123.18 16.352 124.5 16.352ZM131.46 8.552C133.74 8.552 134.448 10.448 134.448 12.86C134.448 15.26 133.74 17.168 131.46 17.168C129.18 17.168 128.472 15.26 128.472 12.86C128.472 10.448 129.18 8.552 131.46 8.552ZM131.46 16.352C132.78 16.352 133.296 15.02 133.296 12.86C133.296 10.688 132.78 9.368 131.46 9.368C130.14 9.368 129.624 10.688 129.624 12.86C129.624 15.02 130.14 16.352 131.46 16.352Z" fill="black" fill-opacity="0.4"/>
<line x1="129.5" y1="46" x2="129.5" y2="41" stroke="black" stroke-opacity="0.4"/>
<line x1="134.5" y1="46" x2="134.5" y2="41" stroke="black" stroke-opacity="0.4"/>
<line x1="139.5" y1="46" x2="139.5" y2="41" stroke="black" stroke-opacity="0.4"/>
<line x1="144.5" y1="46" x2="144.5" y2="41" stroke="black" stroke-opacity="0.4"/>
<line x1="149.5" y1="46" x2="149.5" y2="33" stroke="black" stroke-opacity="0.4"/>
<line x1="154.5" y1="46" x2="154.5" y2="41" stroke="black" stroke-opacity="0.4"/>
<line x1="159.5" y1="46" x2="159.5" y2="41" stroke="black" stroke-opacity="0.4"/>
<line x1="164.5" y1="46" x2="164.5" y2="41" stroke="black" stroke-opacity="0.4"/>
<line x1="169.5" y1="46" x2="169.5" y2="41" stroke="black" stroke-opacity="0.4"/>
<line x1="174.5" y1="46" x2="174.5" y2="23" stroke="black" stroke-opacity="0.4"/>
<path d="M168.811 12.596C169.831 12.884 170.467 13.616 170.467 14.696C170.467 16.244 169.063 17.168 167.467 17.168C165.895 17.168 164.791 16.46 164.611 14.672L164.599 14.552H165.631L165.643 14.672C165.763 15.836 166.555 16.352 167.563 16.352C168.583 16.352 169.315 15.764 169.315 14.756C169.315 13.784 168.691 13.232 167.347 13.232H167.143V12.392H167.347C168.331 12.392 169.123 11.816 169.123 10.772C169.123 9.944 168.535 9.368 167.659 9.368C166.783 9.368 166.075 9.896 165.967 10.988L165.955 11.108H164.923L164.935 10.988C165.091 9.488 166.111 8.552 167.791 8.552C169.315 8.552 170.275 9.404 170.275 10.652C170.275 11.6 169.675 12.344 168.811 12.596ZM174.5 8.552C176.78 8.552 177.488 10.448 177.488 12.86C177.488 15.26 176.78 17.168 174.5 17.168C172.22 17.168 171.512 15.26 171.512 12.86C171.512 10.448 172.22 8.552 174.5 8.552ZM174.5 16.352C175.82 16.352 176.336 15.02 176.336 12.86C176.336 10.688 175.82 9.368 174.5 9.368C173.18 9.368 172.664 10.688 172.664 12.86C172.664 15.02 173.18 16.352 174.5 16.352ZM181.46 8.552C183.74 8.552 184.448 10.448 184.448 12.86C184.448 15.26 183.74 17.168 181.46 17.168C179.18 17.168 178.472 15.26 178.472 12.86C178.472 10.448 179.18 8.552 181.46 8.552ZM181.46 16.352C182.78 16.352 183.296 15.02 183.296 12.86C183.296 10.688 182.78 9.368 181.46 9.368C180.14 9.368 179.624 10.688 179.624 12.86C179.624 15.02 180.14 16.352 181.46 16.352Z" fill="black" fill-opacity="0.4"/>
<line x1="179.5" y1="46" x2="179.5" y2="41" stroke="black" stroke-opacity="0.4"/>
<line x1="184.5" y1="46" x2="184.5" y2="41" stroke="black" stroke-opacity="0.4"/>
<line x1="189.5" y1="46" x2="189.5" y2="41" stroke="black" stroke-opacity="0.4"/>
<line x1="194.5" y1="46" x2="194.5" y2="41" stroke="black" stroke-opacity="0.4"/>
<line x1="199.5" y1="46" x2="199.5" y2="33" stroke="black" stroke-opacity="0.4"/>
<line x1="204.5" y1="46" x2="204.5" y2="41" stroke="black" stroke-opacity="0.4"/>
<line x1="209.5" y1="46" x2="209.5" y2="41" stroke="black" stroke-opacity="0.4"/>
<line x1="214.5" y1="46" x2="214.5" y2="41" stroke="black" stroke-opacity="0.4"/>
<line x1="219.5" y1="46" x2="219.5" y2="41" stroke="black" stroke-opacity="0.4"/>
<line x1="224.5" y1="46" x2="224.5" y2="23" stroke="black" stroke-opacity="0.4"/>
<path d="M220.635 14.912H219.591V17H218.559V14.912H214.455V14.396L218.559 8.72H219.591V14.072H220.635V14.912ZM218.559 14.072V10.1C218.367 10.424 218.151 10.772 217.875 11.156L215.763 14.072H218.559ZM224.5 8.552C226.78 8.552 227.488 10.448 227.488 12.86C227.488 15.26 226.78 17.168 224.5 17.168C222.22 17.168 221.512 15.26 221.512 12.86C221.512 10.448 222.22 8.552 224.5 8.552ZM224.5 16.352C225.82 16.352 226.336 15.02 226.336 12.86C226.336 10.688 225.82 9.368 224.5 9.368C223.18 9.368 222.664 10.688 222.664 12.86C222.664 15.02 223.18 16.352 224.5 16.352ZM231.46 8.552C233.74 8.552 234.448 10.448 234.448 12.86C234.448 15.26 233.74 17.168 231.46 17.168C229.18 17.168 228.472 15.26 228.472 12.86C228.472 10.448 229.18 8.552 231.46 8.552ZM231.46 16.352C232.78 16.352 233.296 15.02 233.296 12.86C233.296 10.688 232.78 9.368 231.46 9.368C230.14 9.368 229.624 10.688 229.624 12.86C229.624 15.02 230.14 16.352 231.46 16.352Z" fill="black" fill-opacity="0.4"/>
<line x1="229.5" y1="46" x2="229.5" y2="41" stroke="black" stroke-opacity="0.4"/>
<line x1="234.5" y1="46" x2="234.5" y2="41" stroke="black" stroke-opacity="0.4"/>
<line x1="239.5" y1="46" x2="239.5" y2="41" stroke="black" stroke-opacity="0.4"/>
<line x1="244.5" y1="46" x2="244.5" y2="41" stroke="black" stroke-opacity="0.4"/>
<line x1="249.5" y1="46" x2="249.5" y2="33" stroke="black" stroke-opacity="0.4"/>
<line x1="254.5" y1="46" x2="254.5" y2="41" stroke="black" stroke-opacity="0.4"/>
<line x1="259.5" y1="46" x2="259.5" y2="41" stroke="black" stroke-opacity="0.4"/>
<line x1="264.5" y1="46" x2="264.5" y2="41" stroke="black" stroke-opacity="0.4"/>
<line x1="269.5" y1="46" x2="269.5" y2="41" stroke="black" stroke-opacity="0.4"/>
<line x1="274.5" y1="46" x2="274.5" y2="23" stroke="black" stroke-opacity="0.4"/>
<path d="M267.743 11.54C269.591 11.54 270.503 12.74 270.503 14.312C270.503 16.136 269.087 17.168 267.551 17.168C265.883 17.168 264.911 16.364 264.755 14.804L264.743 14.684H265.775L265.799 14.804C265.991 15.752 266.507 16.352 267.539 16.352C268.631 16.352 269.351 15.632 269.351 14.384C269.351 13.136 268.691 12.356 267.587 12.356C266.819 12.356 266.267 12.68 265.859 13.532H264.875L265.451 8.72H270.155V9.56H266.291L265.919 12.44L266.435 11.888C266.831 11.648 267.239 11.54 267.743 11.54ZM274.5 8.552C276.78 8.552 277.488 10.448 277.488 12.86C277.488 15.26 276.78 17.168 274.5 17.168C272.22 17.168 271.512 15.26 271.512 12.86C271.512 10.448 272.22 8.552 274.5 8.552ZM274.5 16.352C275.82 16.352 276.336 15.02 276.336 12.86C276.336 10.688 275.82 9.368 274.5 9.368C273.18 9.368 272.664 10.688 272.664 12.86C272.664 15.02 273.18 16.352 274.5 16.352ZM281.46 8.552C283.74 8.552 284.448 10.448 284.448 12.86C284.448 15.26 283.74 17.168 281.46 17.168C279.18 17.168 278.472 15.26 278.472 12.86C278.472 10.448 279.18 8.552 281.46 8.552ZM281.46 16.352C282.78 16.352 283.296 15.02 283.296 12.86C283.296 10.688 282.78 9.368 281.46 9.368C280.14 9.368 279.624 10.688 279.624 12.86C279.624 15.02 280.14 16.352 281.46 16.352Z" fill="black" fill-opacity="0.4"/>
<line x1="279.5" y1="46" x2="279.5" y2="41" stroke="black" stroke-opacity="0.4"/>
<line x1="284.5" y1="46" x2="284.5" y2="41" stroke="black" stroke-opacity="0.4"/>
<line x1="289.5" y1="46" x2="289.5" y2="41" stroke="black" stroke-opacity="0.4"/>
<line x1="294.5" y1="46" x2="294.5" y2="41" stroke="black" stroke-opacity="0.4"/>
<line x1="299.5" y1="46" x2="299.5" y2="33" stroke="black" stroke-opacity="0.4"/>
<line x1="304.5" y1="46" x2="304.5" y2="41" stroke="black" stroke-opacity="0.4"/>
<line x1="309.5" y1="46" x2="309.5" y2="41" stroke="black" stroke-opacity="0.4"/>
<line x1="314.5" y1="46" x2="314.5" y2="41" stroke="black" stroke-opacity="0.4"/>
<line x1="319.5" y1="46" x2="319.5" y2="41" stroke="black" stroke-opacity="0.4"/>
<line x1="324.5" y1="46" x2="324.5" y2="23" stroke="black" stroke-opacity="0.4"/>
<path d="M317.683 11.408C319.411 11.408 320.431 12.572 320.431 14.216C320.431 15.98 319.183 17.168 317.503 17.168C315.655 17.168 314.575 16.004 314.575 13.256C314.575 9.92 316.075 8.552 317.779 8.552C319.195 8.552 320.203 9.428 320.335 10.784L320.347 10.904H319.243L319.219 10.784C319.027 9.848 318.535 9.368 317.695 9.368C316.579 9.368 315.787 10.268 315.703 12.68L316.171 11.936C316.615 11.564 317.083 11.408 317.683 11.408ZM317.503 16.352C318.535 16.352 319.279 15.536 319.279 14.336C319.279 13.184 318.763 12.224 317.503 12.224C316.567 12.224 315.775 12.932 315.775 14.312C315.775 15.464 316.459 16.352 317.503 16.352ZM324.5 8.552C326.78 8.552 327.488 10.448 327.488 12.86C327.488 15.26 326.78 17.168 324.5 17.168C322.22 17.168 321.512 15.26 321.512 12.86C321.512 10.448 322.22 8.552 324.5 8.552ZM324.5 16.352C325.82 16.352 326.336 15.02 326.336 12.86C326.336 10.688 325.82 9.368 324.5 9.368C323.18 9.368 322.664 10.688 322.664 12.86C322.664 15.02 323.18 16.352 324.5 16.352ZM331.46 8.552C333.74 8.552 334.448 10.448 334.448 12.86C334.448 15.26 333.74 17.168 331.46 17.168C329.18 17.168 328.472 15.26 328.472 12.86C328.472 10.448 329.18 8.552 331.46 8.552ZM331.46 16.352C332.78 16.352 333.296 15.02 333.296 12.86C333.296 10.688 332.78 9.368 331.46 9.368C330.14 9.368 329.624 10.688 329.624 12.86C329.624 15.02 330.14 16.352 331.46 16.352Z" fill="black" fill-opacity="0.4"/>
<line x1="329.5" y1="46" x2="329.5" y2="41" stroke="black" stroke-opacity="0.4"/>
<line x1="334.5" y1="46" x2="334.5" y2="41" stroke="black" stroke-opacity="0.4"/>
<line x1="339.5" y1="46" x2="339.5" y2="41" stroke="black" stroke-opacity="0.4"/>
<line x1="344.5" y1="46" x2="344.5" y2="41" stroke="black" stroke-opacity="0.4"/>
<line x1="349.5" y1="46" x2="349.5" y2="33" stroke="black" stroke-opacity="0.4"/>
<line x1="354.5" y1="46" x2="354.5" y2="41" stroke="black" stroke-opacity="0.4"/>
<line x1="359.5" y1="46" x2="359.5" y2="41" stroke="black" stroke-opacity="0.4"/>
<line x1="364.5" y1="46" x2="364.5" y2="41" stroke="black" stroke-opacity="0.4"/>
<line x1="369.5" y1="46" x2="369.5" y2="41" stroke="black" stroke-opacity="0.4"/>
<line x1="374.5" y1="46" x2="374.5" y2="23" stroke="black" stroke-opacity="0.4"/>
<path d="M370.515 8.72V9.2L366.387 17H365.283L369.255 9.56H364.659V8.72H370.515ZM374.5 8.552C376.78 8.552 377.488 10.448 377.488 12.86C377.488 15.26 376.78 17.168 374.5 17.168C372.22 17.168 371.512 15.26 371.512 12.86C371.512 10.448 372.22 8.552 374.5 8.552ZM374.5 16.352C375.82 16.352 376.336 15.02 376.336 12.86C376.336 10.688 375.82 9.368 374.5 9.368C373.18 9.368 372.664 10.688 372.664 12.86C372.664 15.02 373.18 16.352 374.5 16.352ZM381.46 8.552C383.74 8.552 384.448 10.448 384.448 12.86C384.448 15.26 383.74 17.168 381.46 17.168C379.18 17.168 378.472 15.26 378.472 12.86C378.472 10.448 379.18 8.552 381.46 8.552ZM381.46 16.352C382.78 16.352 383.296 15.02 383.296 12.86C383.296 10.688 382.78 9.368 381.46 9.368C380.14 9.368 379.624 10.688 379.624 12.86C379.624 15.02 380.14 16.352 381.46 16.352Z" fill="black" fill-opacity="0.4"/>
<line x1="379.5" y1="46" x2="379.5" y2="41" stroke="black" stroke-opacity="0.4"/>
<line x1="384.5" y1="46" x2="384.5" y2="41" stroke="black" stroke-opacity="0.4"/>
<line x1="389.5" y1="46" x2="389.5" y2="41" stroke="black" stroke-opacity="0.4"/>
<line x1="394.5" y1="46" x2="394.5" y2="41" stroke="black" stroke-opacity="0.4"/>
<line x1="399.5" y1="46" x2="399.5" y2="33" stroke="black" stroke-opacity="0.4"/>
<line x1="404.5" y1="46" x2="404.5" y2="41" stroke="black" stroke-opacity="0.4"/>
<line x1="409.5" y1="46" x2="409.5" y2="41" stroke="black" stroke-opacity="0.4"/>
<line x1="414.5" y1="46" x2="414.5" y2="41" stroke="black" stroke-opacity="0.4"/>
<line x1="419.5" y1="46" x2="419.5" y2="41" stroke="black" stroke-opacity="0.4"/>
<line x1="424.5" y1="46" x2="424.5" y2="23" stroke="black" stroke-opacity="0.4"/>
<path d="M418.907 12.62C419.795 12.908 420.491 13.688 420.491 14.684C420.491 16.496 418.991 17.18 417.539 17.18C415.967 17.18 414.587 16.496 414.587 14.684C414.587 13.688 415.343 12.908 416.231 12.632C415.487 12.344 414.947 11.684 414.947 10.784C414.947 9.416 415.991 8.552 417.611 8.552C419.231 8.552 420.275 9.416 420.275 10.784C420.275 11.696 419.675 12.344 418.907 12.62ZM417.611 9.368C416.567 9.368 416.063 10.028 416.063 10.82C416.063 11.66 416.567 12.296 417.599 12.296C418.631 12.296 419.159 11.66 419.159 10.82C419.159 10.028 418.655 9.368 417.611 9.368ZM417.563 16.364C418.775 16.364 419.339 15.68 419.339 14.732C419.339 13.88 418.835 13.112 417.551 13.112C416.267 13.112 415.739 13.88 415.739 14.732C415.739 15.68 416.351 16.364 417.563 16.364ZM424.5 8.552C426.78 8.552 427.488 10.448 427.488 12.86C427.488 15.26 426.78 17.168 424.5 17.168C422.22 17.168 421.512 15.26 421.512 12.86C421.512 10.448 422.22 8.552 424.5 8.552ZM424.5 16.352C425.82 16.352 426.336 15.02 426.336 12.86C426.336 10.688 425.82 9.368 424.5 9.368C423.18 9.368 422.664 10.688 422.664 12.86C422.664 15.02 423.18 16.352 424.5 16.352ZM431.46 8.552C433.74 8.552 434.448 10.448 434.448 12.86C434.448 15.26 433.74 17.168 431.46 17.168C429.18 17.168 428.472 15.26 428.472 12.86C428.472 10.448 429.18 8.552 431.46 8.552ZM431.46 16.352C432.78 16.352 433.296 15.02 433.296 12.86C433.296 10.688 432.78 9.368 431.46 9.368C430.14 9.368 429.624 10.688 429.624 12.86C429.624 15.02 430.14 16.352 431.46 16.352Z" fill="black" fill-opacity="0.4"/>
<line x1="429.5" y1="46" x2="429.5" y2="41" stroke="black" stroke-opacity="0.4"/>
<line x1="434.5" y1="46" x2="434.5" y2="41" stroke="black" stroke-opacity="0.4"/>
<line x1="439.5" y1="46" x2="439.5" y2="41" stroke="black" stroke-opacity="0.4"/>
<line x1="444.5" y1="46" x2="444.5" y2="41" stroke="black" stroke-opacity="0.4"/>
<line x1="449.5" y1="46" x2="449.5" y2="33" stroke="black" stroke-opacity="0.4"/>
<line x1="454.5" y1="46" x2="454.5" y2="41" stroke="black" stroke-opacity="0.4"/>
<line x1="459.5" y1="46" x2="459.5" y2="41" stroke="black" stroke-opacity="0.4"/>
<line x1="464.5" y1="46" x2="464.5" y2="41" stroke="black" stroke-opacity="0.4"/>
<line x1="469.5" y1="46" x2="469.5" y2="41" stroke="black" stroke-opacity="0.4"/>
<line x1="474.5" y1="46" x2="474.5" y2="23" stroke="black" stroke-opacity="0.4"/>
<path d="M467.575 8.552C469.423 8.552 470.503 9.716 470.503 12.464C470.503 15.8 469.003 17.168 467.299 17.168C465.883 17.168 464.875 16.292 464.743 14.936L464.731 14.816H465.835L465.859 14.936C466.051 15.872 466.543 16.352 467.383 16.352C468.499 16.352 469.291 15.452 469.375 13.04L468.907 13.784C468.463 14.156 467.995 14.312 467.395 14.312C465.667 14.312 464.647 13.148 464.647 11.504C464.647 9.74 465.895 8.552 467.575 8.552ZM467.575 13.496C468.511 13.496 469.303 12.788 469.303 11.408C469.303 10.256 468.619 9.368 467.575 9.368C466.543 9.368 465.799 10.184 465.799 11.384C465.799 12.536 466.315 13.496 467.575 13.496ZM474.5 8.552C476.78 8.552 477.488 10.448 477.488 12.86C477.488 15.26 476.78 17.168 474.5 17.168C472.22 17.168 471.512 15.26 471.512 12.86C471.512 10.448 472.22 8.552 474.5 8.552ZM474.5 16.352C475.82 16.352 476.336 15.02 476.336 12.86C476.336 10.688 475.82 9.368 474.5 9.368C473.18 9.368 472.664 10.688 472.664 12.86C472.664 15.02 473.18 16.352 474.5 16.352ZM481.46 8.552C483.74 8.552 484.448 10.448 484.448 12.86C484.448 15.26 483.74 17.168 481.46 17.168C479.18 17.168 478.472 15.26 478.472 12.86C478.472 10.448 479.18 8.552 481.46 8.552ZM481.46 16.352C482.78 16.352 483.296 15.02 483.296 12.86C483.296 10.688 482.78 9.368 481.46 9.368C480.14 9.368 479.624 10.688 479.624 12.86C479.624 15.02 480.14 16.352 481.46 16.352Z" fill="black" fill-opacity="0.4"/>
<line x1="479.5" y1="46" x2="479.5" y2="41" stroke="black" stroke-opacity="0.4"/>
<line x1="484.5" y1="46" x2="484.5" y2="41" stroke="black" stroke-opacity="0.4"/>
<line x1="489.5" y1="46" x2="489.5" y2="41" stroke="black" stroke-opacity="0.4"/>
<line x1="494.5" y1="46" x2="494.5" y2="41" stroke="black" stroke-opacity="0.4"/>
<line x1="499.5" y1="46" x2="499.5" y2="33" stroke="black" stroke-opacity="0.4"/>
<line x1="504.5" y1="46" x2="504.5" y2="41" stroke="black" stroke-opacity="0.4"/>
<line x1="509.5" y1="46" x2="509.5" y2="41" stroke="black" stroke-opacity="0.4"/>
<line x1="514.5" y1="46" x2="514.5" y2="41" stroke="black" stroke-opacity="0.4"/>
<line x1="519.5" y1="46" x2="519.5" y2="41" stroke="black" stroke-opacity="0.4"/>
<line x1="524.5" y1="46" x2="524.5" y2="23" stroke="black" stroke-opacity="0.4"/>
<path d="M514.95 8.72V17H513.918V9.812L511.638 11.168V10.076L513.39 8.984C513.714 8.78 514.002 8.72 514.29 8.72H514.95ZM520.519 8.552C522.799 8.552 523.507 10.448 523.507 12.86C523.507 15.26 522.799 17.168 520.519 17.168C518.239 17.168 517.531 15.26 517.531 12.86C517.531 10.448 518.239 8.552 520.519 8.552ZM520.519 16.352C521.839 16.352 522.355 15.02 522.355 12.86C522.355 10.688 521.839 9.368 520.519 9.368C519.199 9.368 518.683 10.688 518.683 12.86C518.683 15.02 519.199 16.352 520.519 16.352ZM527.48 8.552C529.76 8.552 530.468 10.448 530.468 12.86C530.468 15.26 529.76 17.168 527.48 17.168C525.2 17.168 524.492 15.26 524.492 12.86C524.492 10.448 525.2 8.552 527.48 8.552ZM527.48 16.352C528.8 16.352 529.316 15.02 529.316 12.86C529.316 10.688 528.8 9.368 527.48 9.368C526.16 9.368 525.644 10.688 525.644 12.86C525.644 15.02 526.16 16.352 527.48 16.352ZM534.441 8.552C536.721 8.552 537.429 10.448 537.429 12.86C537.429 15.26 536.721 17.168 534.441 17.168C532.161 17.168 531.453 15.26 531.453 12.86C531.453 10.448 532.161 8.552 534.441 8.552ZM534.441 16.352C535.761 16.352 536.277 15.02 536.277 12.86C536.277 10.688 535.761 9.368 534.441 9.368C533.121 9.368 532.605 10.688 532.605 12.86C532.605 15.02 533.121 16.352 534.441 16.352Z" fill="black" fill-opacity="0.4"/>
<line x1="529.5" y1="46" x2="529.5" y2="41" stroke="black" stroke-opacity="0.4"/>
<line x1="534.5" y1="46" x2="534.5" y2="41" stroke="black" stroke-opacity="0.4"/>
<line x1="539.5" y1="46" x2="539.5" y2="41" stroke="black" stroke-opacity="0.4"/>
<line x1="544.5" y1="46" x2="544.5" y2="41" stroke="black" stroke-opacity="0.4"/>
<line x1="549.5" y1="46" x2="549.5" y2="33" stroke="black" stroke-opacity="0.4"/>
<line x1="554.5" y1="46" x2="554.5" y2="41" stroke="black" stroke-opacity="0.4"/>
<line x1="559.5" y1="46" x2="559.5" y2="41" stroke="black" stroke-opacity="0.4"/>
<line x1="564.5" y1="46" x2="564.5" y2="41" stroke="black" stroke-opacity="0.4"/>
<line x1="569.5" y1="46" x2="569.5" y2="41" stroke="black" stroke-opacity="0.4"/>
<line x1="574.5" y1="46" x2="574.5" y2="23" stroke="black" stroke-opacity="0.4"/>
<path d="M564.95 8.72V17H563.918V9.812L561.638 11.168V10.076L563.39 8.984C563.714 8.78 564.002 8.72 564.29 8.72H564.95ZM571.911 8.72V17H570.879V9.812L568.599 11.168V10.076L570.351 8.984C570.675 8.78 570.963 8.72 571.251 8.72H571.911ZM577.48 8.552C579.76 8.552 580.468 10.448 580.468 12.86C580.468 15.26 579.76 17.168 577.48 17.168C575.2 17.168 574.492 15.26 574.492 12.86C574.492 10.448 575.2 8.552 577.48 8.552ZM577.48 16.352C578.8 16.352 579.316 15.02 579.316 12.86C579.316 10.688 578.8 9.368 577.48 9.368C576.16 9.368 575.644 10.688 575.644 12.86C575.644 15.02 576.16 16.352 577.48 16.352ZM584.441 8.552C586.721 8.552 587.429 10.448 587.429 12.86C587.429 15.26 586.721 17.168 584.441 17.168C582.161 17.168 581.453 15.26 581.453 12.86C581.453 10.448 582.161 8.552 584.441 8.552ZM584.441 16.352C585.761 16.352 586.277 15.02 586.277 12.86C586.277 10.688 585.761 9.368 584.441 9.368C583.121 9.368 582.605 10.688 582.605 12.86C582.605 15.02 583.121 16.352 584.441 16.352Z" fill="black" fill-opacity="0.4"/>
<line x1="579.5" y1="46" x2="579.5" y2="41" stroke="black" stroke-opacity="0.4"/>
<line x1="584.5" y1="46" x2="584.5" y2="41" stroke="black" stroke-opacity="0.4"/>
<line x1="589.5" y1="46" x2="589.5" y2="41" stroke="black" stroke-opacity="0.4"/>
<line x1="594.5" y1="46" x2="594.5" y2="41" stroke="black" stroke-opacity="0.4"/>
<line x1="599.5" y1="46" x2="599.5" y2="33" stroke="black" stroke-opacity="0.4"/>
<line x1="604.5" y1="46" x2="604.5" y2="41" stroke="black" stroke-opacity="0.4"/>
<line x1="609.5" y1="46" x2="609.5" y2="41" stroke="black" stroke-opacity="0.4"/>
<line x1="614.5" y1="46" x2="614.5" y2="41" stroke="black" stroke-opacity="0.4"/>
<line x1="619.5" y1="46" x2="619.5" y2="41" stroke="black" stroke-opacity="0.4"/>
<line x1="624.5" y1="46" x2="624.5" y2="23" stroke="black" stroke-opacity="0.4"/>
<path d="M614.95 8.72V17H613.918V9.812L611.638 11.168V10.076L613.39 8.984C613.714 8.78 614.002 8.72 614.29 8.72H614.95ZM619.259 16.16H623.315V17H617.759V16.412L620.759 13.352C621.731 12.356 622.199 11.756 622.199 10.952C622.199 10.1 621.707 9.368 620.711 9.368C619.643 9.368 619.127 10.028 619.007 11.192L618.995 11.312H617.963L617.975 11.192C618.143 9.464 619.175 8.552 620.831 8.552C622.523 8.552 623.351 9.596 623.351 10.832C623.351 11.96 622.739 12.728 621.335 14.108L619.259 16.16ZM627.48 8.552C629.76 8.552 630.468 10.448 630.468 12.86C630.468 15.26 629.76 17.168 627.48 17.168C625.2 17.168 624.492 15.26 624.492 12.86C624.492 10.448 625.2 8.552 627.48 8.552ZM627.48 16.352C628.8 16.352 629.316 15.02 629.316 12.86C629.316 10.688 628.8 9.368 627.48 9.368C626.16 9.368 625.644 10.688 625.644 12.86C625.644 15.02 626.16 16.352 627.48 16.352ZM634.441 8.552C636.721 8.552 637.429 10.448 637.429 12.86C637.429 15.26 636.721 17.168 634.441 17.168C632.161 17.168 631.453 15.26 631.453 12.86C631.453 10.448 632.161 8.552 634.441 8.552ZM634.441 16.352C635.761 16.352 636.277 15.02 636.277 12.86C636.277 10.688 635.761 9.368 634.441 9.368C633.121 9.368 632.605 10.688 632.605 12.86C632.605 15.02 633.121 16.352 634.441 16.352Z" fill="black" fill-opacity="0.4"/>
<line x1="629.5" y1="46" x2="629.5" y2="41" stroke="black" stroke-opacity="0.4"/>
<line x1="634.5" y1="46" x2="634.5" y2="41" stroke="black" stroke-opacity="0.4"/>
<line x1="639.5" y1="46" x2="639.5" y2="41" stroke="black" stroke-opacity="0.4"/>
<line x1="644.5" y1="46" x2="644.5" y2="41" stroke="black" stroke-opacity="0.4"/>
<line x1="649.5" y1="46" x2="649.5" y2="33" stroke="black" stroke-opacity="0.4"/>
<line x1="654.5" y1="46" x2="654.5" y2="41" stroke="black" stroke-opacity="0.4"/>
<line x1="659.5" y1="46" x2="659.5" y2="41" stroke="black" stroke-opacity="0.4"/>
<line x1="664.5" y1="46" x2="664.5" y2="41" stroke="black" stroke-opacity="0.4"/>
<line x1="669.5" y1="46" x2="669.5" y2="41" stroke="black" stroke-opacity="0.4"/>
<line x1="674.5" y1="46" x2="674.5" y2="23" stroke="black" stroke-opacity="0.4"/>
<path d="M664.95 8.72V17H663.918V9.812L661.638 11.168V10.076L663.39 8.984C663.714 8.78 664.002 8.72 664.29 8.72H664.95ZM671.791 12.596C672.811 12.884 673.447 13.616 673.447 14.696C673.447 16.244 672.043 17.168 670.447 17.168C668.875 17.168 667.771 16.46 667.591 14.672L667.579 14.552H668.611L668.623 14.672C668.743 15.836 669.535 16.352 670.543 16.352C671.563 16.352 672.295 15.764 672.295 14.756C672.295 13.784 671.671 13.232 670.327 13.232H670.123V12.392H670.327C671.311 12.392 672.103 11.816 672.103 10.772C672.103 9.944 671.515 9.368 670.639 9.368C669.763 9.368 669.055 9.896 668.947 10.988L668.935 11.108H667.903L667.915 10.988C668.071 9.488 669.091 8.552 670.771 8.552C672.295 8.552 673.255 9.404 673.255 10.652C673.255 11.6 672.655 12.344 671.791 12.596ZM677.48 8.552C679.76 8.552 680.468 10.448 680.468 12.86C680.468 15.26 679.76 17.168 677.48 17.168C675.2 17.168 674.492 15.26 674.492 12.86C674.492 10.448 675.2 8.552 677.48 8.552ZM677.48 16.352C678.8 16.352 679.316 15.02 679.316 12.86C679.316 10.688 678.8 9.368 677.48 9.368C676.16 9.368 675.644 10.688 675.644 12.86C675.644 15.02 676.16 16.352 677.48 16.352ZM684.441 8.552C686.721 8.552 687.429 10.448 687.429 12.86C687.429 15.26 686.721 17.168 684.441 17.168C682.161 17.168 681.453 15.26 681.453 12.86C681.453 10.448 682.161 8.552 684.441 8.552ZM684.441 16.352C685.761 16.352 686.277 15.02 686.277 12.86C686.277 10.688 685.761 9.368 684.441 9.368C683.121 9.368 682.605 10.688 682.605 12.86C682.605 15.02 683.121 16.352 684.441 16.352Z" fill="black" fill-opacity="0.4"/>
<line x1="679.5" y1="46" x2="679.5" y2="41" stroke="black" stroke-opacity="0.4"/>
<line x1="684.5" y1="46" x2="684.5" y2="41" stroke="black" stroke-opacity="0.4"/>
<line x1="689.5" y1="46" x2="689.5" y2="41" stroke="black" stroke-opacity="0.4"/>
<line x1="694.5" y1="46" x2="694.5" y2="41" stroke="black" stroke-opacity="0.4"/>
<line x1="699.5" y1="46" x2="699.5" y2="33" stroke="black" stroke-opacity="0.4"/>
<line x1="704.5" y1="46" x2="704.5" y2="41" stroke="black" stroke-opacity="0.4"/>
<line x1="709.5" y1="46" x2="709.5" y2="41" stroke="black" stroke-opacity="0.4"/>
<line x1="714.5" y1="46" x2="714.5" y2="41" stroke="black" stroke-opacity="0.4"/>
<line x1="719.5" y1="46" x2="719.5" y2="41" stroke="black" stroke-opacity="0.4"/>
<line x1="724.5" y1="46" x2="724.5" y2="23" stroke="black" stroke-opacity="0.4"/>
<path d="M714.95 8.72V17H713.918V9.812L711.638 11.168V10.076L713.39 8.984C713.714 8.78 714.002 8.72 714.29 8.72H714.95ZM723.615 14.912H722.571V17H721.539V14.912H717.435V14.396L721.539 8.72H722.571V14.072H723.615V14.912ZM721.539 14.072V10.1C721.347 10.424 721.131 10.772 720.855 11.156L718.743 14.072H721.539ZM727.48 8.552C729.76 8.552 730.468 10.448 730.468 12.86C730.468 15.26 729.76 17.168 727.48 17.168C725.2 17.168 724.492 15.26 724.492 12.86C724.492 10.448 725.2 8.552 727.48 8.552ZM727.48 16.352C728.8 16.352 729.316 15.02 729.316 12.86C729.316 10.688 728.8 9.368 727.48 9.368C726.16 9.368 725.644 10.688 725.644 12.86C725.644 15.02 726.16 16.352 727.48 16.352ZM734.441 8.552C736.721 8.552 737.429 10.448 737.429 12.86C737.429 15.26 736.721 17.168 734.441 17.168C732.161 17.168 731.453 15.26 731.453 12.86C731.453 10.448 732.161 8.552 734.441 8.552ZM734.441 16.352C735.761 16.352 736.277 15.02 736.277 12.86C736.277 10.688 735.761 9.368 734.441 9.368C733.121 9.368 732.605 10.688 732.605 12.86C732.605 15.02 733.121 16.352 734.441 16.352Z" fill="black" fill-opacity="0.4"/>
<line x1="729.5" y1="46" x2="729.5" y2="41" stroke="black" stroke-opacity="0.4"/>
<line x1="734.5" y1="46" x2="734.5" y2="41" stroke="black" stroke-opacity="0.4"/>
<line x1="739.5" y1="46" x2="739.5" y2="41" stroke="black" stroke-opacity="0.4"/>
<line x1="744.5" y1="46" x2="744.5" y2="41" stroke="black" stroke-opacity="0.4"/>
<line x1="749.5" y1="46" x2="749.5" y2="33" stroke="black" stroke-opacity="0.4"/>
<line x1="754.5" y1="46" x2="754.5" y2="41" stroke="black" stroke-opacity="0.4"/>
<line x1="759.5" y1="46" x2="759.5" y2="41" stroke="black" stroke-opacity="0.4"/>
<line x1="764.5" y1="46" x2="764.5" y2="41" stroke="black" stroke-opacity="0.4"/>
<line x1="769.5" y1="46" x2="769.5" y2="41" stroke="black" stroke-opacity="0.4"/>
<line x1="774.5" y1="46" x2="774.5" y2="23" stroke="black" stroke-opacity="0.4"/>
<path d="M764.95 8.72V17H763.918V9.812L761.638 11.168V10.076L763.39 8.984C763.714 8.78 764.002 8.72 764.29 8.72H764.95ZM770.723 11.54C772.571 11.54 773.483 12.74 773.483 14.312C773.483 16.136 772.067 17.168 770.531 17.168C768.863 17.168 767.891 16.364 767.735 14.804L767.723 14.684H768.755L768.779 14.804C768.971 15.752 769.487 16.352 770.519 16.352C771.611 16.352 772.331 15.632 772.331 14.384C772.331 13.136 771.671 12.356 770.567 12.356C769.799 12.356 769.247 12.68 768.839 13.532H767.855L768.431 8.72H773.135V9.56H769.271L768.899 12.44L769.415 11.888C769.811 11.648 770.219 11.54 770.723 11.54ZM777.48 8.552C779.76 8.552 780.468 10.448 780.468 12.86C780.468 15.26 779.76 17.168 777.48 17.168C775.2 17.168 774.492 15.26 774.492 12.86C774.492 10.448 775.2 8.552 777.48 8.552ZM777.48 16.352C778.8 16.352 779.316 15.02 779.316 12.86C779.316 10.688 778.8 9.368 777.48 9.368C776.16 9.368 775.644 10.688 775.644 12.86C775.644 15.02 776.16 16.352 777.48 16.352ZM784.441 8.552C786.721 8.552 787.429 10.448 787.429 12.86C787.429 15.26 786.721 17.168 784.441 17.168C782.161 17.168 781.453 15.26 781.453 12.86C781.453 10.448 782.161 8.552 784.441 8.552ZM784.441 16.352C785.761 16.352 786.277 15.02 786.277 12.86C786.277 10.688 785.761 9.368 784.441 9.368C783.121 9.368 782.605 10.688 782.605 12.86C782.605 15.02 783.121 16.352 784.441 16.352Z" fill="black" fill-opacity="0.4"/>
<line x1="779.5" y1="46" x2="779.5" y2="41" stroke="black" stroke-opacity="0.4"/>
<line x1="784.5" y1="46" x2="784.5" y2="41" stroke="black" stroke-opacity="0.4"/>
<line x1="789.5" y1="46" x2="789.5" y2="41" stroke="black" stroke-opacity="0.4"/>
<line x1="794.5" y1="46" x2="794.5" y2="41" stroke="black" stroke-opacity="0.4"/>
<line x1="799.5" y1="46" x2="799.5" y2="33" stroke="black" stroke-opacity="0.4"/>
<line x1="804.5" y1="46" x2="804.5" y2="41" stroke="black" stroke-opacity="0.4"/>
<line x1="809.5" y1="46" x2="809.5" y2="41" stroke="black" stroke-opacity="0.4"/>
<line x1="814.5" y1="46" x2="814.5" y2="41" stroke="black" stroke-opacity="0.4"/>
<line x1="819.5" y1="46" x2="819.5" y2="41" stroke="black" stroke-opacity="0.4"/>
<line x1="824.5" y1="46" x2="824.5" y2="23" stroke="black" stroke-opacity="0.4"/>
<path d="M814.95 8.72V17H813.918V9.812L811.638 11.168V10.076L813.39 8.984C813.714 8.78 814.002 8.72 814.29 8.72H814.95ZM820.663 11.408C822.391 11.408 823.411 12.572 823.411 14.216C823.411 15.98 822.163 17.168 820.483 17.168C818.635 17.168 817.555 16.004 817.555 13.256C817.555 9.92 819.055 8.552 820.759 8.552C822.175 8.552 823.183 9.428 823.315 10.784L823.327 10.904H822.223L822.199 10.784C822.007 9.848 821.515 9.368 820.675 9.368C819.559 9.368 818.767 10.268 818.683 12.68L819.151 11.936C819.595 11.564 820.063 11.408 820.663 11.408ZM820.483 16.352C821.515 16.352 822.259 15.536 822.259 14.336C822.259 13.184 821.743 12.224 820.483 12.224C819.547 12.224 818.755 12.932 818.755 14.312C818.755 15.464 819.439 16.352 820.483 16.352ZM827.48 8.552C829.76 8.552 830.468 10.448 830.468 12.86C830.468 15.26 829.76 17.168 827.48 17.168C825.2 17.168 824.492 15.26 824.492 12.86C824.492 10.448 825.2 8.552 827.48 8.552ZM827.48 16.352C828.8 16.352 829.316 15.02 829.316 12.86C829.316 10.688 828.8 9.368 827.48 9.368C826.16 9.368 825.644 10.688 825.644 12.86C825.644 15.02 826.16 16.352 827.48 16.352ZM834.441 8.552C836.721 8.552 837.429 10.448 837.429 12.86C837.429 15.26 836.721 17.168 834.441 17.168C832.161 17.168 831.453 15.26 831.453 12.86C831.453 10.448 832.161 8.552 834.441 8.552ZM834.441 16.352C835.761 16.352 836.277 15.02 836.277 12.86C836.277 10.688 835.761 9.368 834.441 9.368C833.121 9.368 832.605 10.688 832.605 12.86C832.605 15.02 833.121 16.352 834.441 16.352Z" fill="black" fill-opacity="0.4"/>
<line x1="829.5" y1="46" x2="829.5" y2="41" stroke="black" stroke-opacity="0.4"/>
<line x1="834.5" y1="46" x2="834.5" y2="41" stroke="black" stroke-opacity="0.4"/>
<line x1="839.5" y1="46" x2="839.5" y2="41" stroke="black" stroke-opacity="0.4"/>
<line x1="844.5" y1="46" x2="844.5" y2="41" stroke="black" stroke-opacity="0.4"/>
<line x1="849.5" y1="46" x2="849.5" y2="33" stroke="black" stroke-opacity="0.4"/>
<line x1="854.5" y1="46" x2="854.5" y2="41" stroke="black" stroke-opacity="0.4"/>
<line x1="859.5" y1="46" x2="859.5" y2="41" stroke="black" stroke-opacity="0.4"/>
<line x1="864.5" y1="46" x2="864.5" y2="41" stroke="black" stroke-opacity="0.4"/>
<line x1="869.5" y1="46" x2="869.5" y2="41" stroke="black" stroke-opacity="0.4"/>
<line x1="874.5" y1="46" x2="874.5" y2="23" stroke="black" stroke-opacity="0.4"/>
<path d="M864.95 8.72V17H863.918V9.812L861.638 11.168V10.076L863.39 8.984C863.714 8.78 864.002 8.72 864.29 8.72H864.95ZM873.495 8.72V9.2L869.367 17H868.263L872.235 9.56H867.639V8.72H873.495ZM877.48 8.552C879.76 8.552 880.468 10.448 880.468 12.86C880.468 15.26 879.76 17.168 877.48 17.168C875.2 17.168 874.492 15.26 874.492 12.86C874.492 10.448 875.2 8.552 877.48 8.552ZM877.48 16.352C878.8 16.352 879.316 15.02 879.316 12.86C879.316 10.688 878.8 9.368 877.48 9.368C876.16 9.368 875.644 10.688 875.644 12.86C875.644 15.02 876.16 16.352 877.48 16.352ZM884.441 8.552C886.721 8.552 887.429 10.448 887.429 12.86C887.429 15.26 886.721 17.168 884.441 17.168C882.161 17.168 881.453 15.26 881.453 12.86C881.453 10.448 882.161 8.552 884.441 8.552ZM884.441 16.352C885.761 16.352 886.277 15.02 886.277 12.86C886.277 10.688 885.761 9.368 884.441 9.368C883.121 9.368 882.605 10.688 882.605 12.86C882.605 15.02 883.121 16.352 884.441 16.352Z" fill="black" fill-opacity="0.4"/>
<line x1="879.5" y1="46" x2="879.5" y2="41" stroke="black" stroke-opacity="0.4"/>
<line x1="884.5" y1="46" x2="884.5" y2="41" stroke="black" stroke-opacity="0.4"/>
<line x1="889.5" y1="46" x2="889.5" y2="41" stroke="black" stroke-opacity="0.4"/>
<line x1="894.5" y1="46" x2="894.5" y2="41" stroke="black" stroke-opacity="0.4"/>
<line x1="899.5" y1="46" x2="899.5" y2="33" stroke="black" stroke-opacity="0.4"/>
<line x1="904.5" y1="46" x2="904.5" y2="41" stroke="black" stroke-opacity="0.4"/>
<line x1="909.5" y1="46" x2="909.5" y2="41" stroke="black" stroke-opacity="0.4"/>
<line x1="914.5" y1="46" x2="914.5" y2="41" stroke="black" stroke-opacity="0.4"/>
<line x1="919.5" y1="46" x2="919.5" y2="41" stroke="black" stroke-opacity="0.4"/>
<line x1="924.5" y1="46" x2="924.5" y2="23" stroke="black" stroke-opacity="0.4"/>
<path d="M914.95 8.72V17H913.918V9.812L911.638 11.168V10.076L913.39 8.984C913.714 8.78 914.002 8.72 914.29 8.72H914.95ZM921.887 12.62C922.775 12.908 923.471 13.688 923.471 14.684C923.471 16.496 921.971 17.18 920.519 17.18C918.947 17.18 917.567 16.496 917.567 14.684C917.567 13.688 918.323 12.908 919.211 12.632C918.467 12.344 917.927 11.684 917.927 10.784C917.927 9.416 918.971 8.552 920.591 8.552C922.211 8.552 923.255 9.416 923.255 10.784C923.255 11.696 922.655 12.344 921.887 12.62ZM920.591 9.368C919.547 9.368 919.043 10.028 919.043 10.82C919.043 11.66 919.547 12.296 920.579 12.296C921.611 12.296 922.139 11.66 922.139 10.82C922.139 10.028 921.635 9.368 920.591 9.368ZM920.543 16.364C921.755 16.364 922.319 15.68 922.319 14.732C922.319 13.88 921.815 13.112 920.531 13.112C919.247 13.112 918.719 13.88 918.719 14.732C918.719 15.68 919.331 16.364 920.543 16.364ZM927.48 8.552C929.76 8.552 930.468 10.448 930.468 12.86C930.468 15.26 929.76 17.168 927.48 17.168C925.2 17.168 924.492 15.26 924.492 12.86C924.492 10.448 925.2 8.552 927.48 8.552ZM927.48 16.352C928.8 16.352 929.316 15.02 929.316 12.86C929.316 10.688 928.8 9.368 927.48 9.368C926.16 9.368 925.644 10.688 925.644 12.86C925.644 15.02 926.16 16.352 927.48 16.352ZM934.441 8.552C936.721 8.552 937.429 10.448 937.429 12.86C937.429 15.26 936.721 17.168 934.441 17.168C932.161 17.168 931.453 15.26 931.453 12.86C931.453 10.448 932.161 8.552 934.441 8.552ZM934.441 16.352C935.761 16.352 936.277 15.02 936.277 12.86C936.277 10.688 935.761 9.368 934.441 9.368C933.121 9.368 932.605 10.688 932.605 12.86C932.605 15.02 933.121 16.352 934.441 16.352Z" fill="black" fill-opacity="0.4"/>
<line x1="929.5" y1="46" x2="929.5" y2="41" stroke="black" stroke-opacity="0.4"/>
<line x1="934.5" y1="46" x2="934.5" y2="41" stroke="black" stroke-opacity="0.4"/>
<line x1="939.5" y1="46" x2="939.5" y2="41" stroke="black" stroke-opacity="0.4"/>
<line x1="944.5" y1="46" x2="944.5" y2="41" stroke="black" stroke-opacity="0.4"/>
<line x1="949.5" y1="46" x2="949.5" y2="33" stroke="black" stroke-opacity="0.4"/>
<line x1="954.5" y1="46" x2="954.5" y2="41" stroke="black" stroke-opacity="0.4"/>
<line x1="959.5" y1="46" x2="959.5" y2="41" stroke="black" stroke-opacity="0.4"/>
<line x1="964.5" y1="46" x2="964.5" y2="41" stroke="black" stroke-opacity="0.4"/>
<line x1="969.5" y1="46" x2="969.5" y2="41" stroke="black" stroke-opacity="0.4"/>
<line x1="974.5" y1="46" x2="974.5" y2="23" stroke="black" stroke-opacity="0.4"/>
<path d="M964.95 8.72V17H963.918V9.812L961.638 11.168V10.076L963.39 8.984C963.714 8.78 964.002 8.72 964.29 8.72H964.95ZM970.555 8.552C972.403 8.552 973.483 9.716 973.483 12.464C973.483 15.8 971.983 17.168 970.279 17.168C968.863 17.168 967.855 16.292 967.723 14.936L967.711 14.816H968.815L968.839 14.936C969.031 15.872 969.523 16.352 970.363 16.352C971.479 16.352 972.271 15.452 972.355 13.04L971.887 13.784C971.443 14.156 970.975 14.312 970.375 14.312C968.647 14.312 967.627 13.148 967.627 11.504C967.627 9.74 968.875 8.552 970.555 8.552ZM970.555 13.496C971.491 13.496 972.283 12.788 972.283 11.408C972.283 10.256 971.599 9.368 970.555 9.368C969.523 9.368 968.779 10.184 968.779 11.384C968.779 12.536 969.295 13.496 970.555 13.496ZM977.48 8.552C979.76 8.552 980.468 10.448 980.468 12.86C980.468 15.26 979.76 17.168 977.48 17.168C975.2 17.168 974.492 15.26 974.492 12.86C974.492 10.448 975.2 8.552 977.48 8.552ZM977.48 16.352C978.8 16.352 979.316 15.02 979.316 12.86C979.316 10.688 978.8 9.368 977.48 9.368C976.16 9.368 975.644 10.688 975.644 12.86C975.644 15.02 976.16 16.352 977.48 16.352ZM984.441 8.552C986.721 8.552 987.429 10.448 987.429 12.86C987.429 15.26 986.721 17.168 984.441 17.168C982.161 17.168 981.453 15.26 981.453 12.86C981.453 10.448 982.161 8.552 984.441 8.552ZM984.441 16.352C985.761 16.352 986.277 15.02 986.277 12.86C986.277 10.688 985.761 9.368 984.441 9.368C983.121 9.368 982.605 10.688 982.605 12.86C982.605 15.02 983.121 16.352 984.441 16.352Z" fill="black" fill-opacity="0.4"/>
<line x1="979.5" y1="46" x2="979.5" y2="41" stroke="black" stroke-opacity="0.4"/>
<line x1="984.5" y1="46" x2="984.5" y2="41" stroke="black" stroke-opacity="0.4"/>
<line x1="989.5" y1="46" x2="989.5" y2="41" stroke="black" stroke-opacity="0.4"/>
<line x1="994.5" y1="46" x2="994.5" y2="41" stroke="black" stroke-opacity="0.4"/>
<line x1="999.5" y1="46" x2="999.5" y2="33" stroke="black" stroke-opacity="0.4"/>
<line x1="1004.5" y1="46" x2="1004.5" y2="41" stroke="black" stroke-opacity="0.4"/>
<line x1="1009.5" y1="46" x2="1009.5" y2="41" stroke="black" stroke-opacity="0.4"/>
<line x1="1014.5" y1="46" x2="1014.5" y2="41" stroke="black" stroke-opacity="0.4"/>
<line x1="1019.5" y1="46" x2="1019.5" y2="41" stroke="black" stroke-opacity="0.4"/>
<line x1="1024.5" y1="46" x2="1024.5" y2="23" stroke="black" stroke-opacity="0.4"/>
<path d="M1012.3 16.16H1016.35V17H1010.8V16.412L1013.8 13.352C1014.77 12.356 1015.24 11.756 1015.24 10.952C1015.24 10.1 1014.75 9.368 1013.75 9.368C1012.68 9.368 1012.17 10.028 1012.05 11.192L1012.03 11.312H1011L1011.01 11.192C1011.18 9.464 1012.21 8.552 1013.87 8.552C1015.56 8.552 1016.39 9.596 1016.39 10.832C1016.39 11.96 1015.78 12.728 1014.37 14.108L1012.3 16.16ZM1020.52 8.552C1022.8 8.552 1023.51 10.448 1023.51 12.86C1023.51 15.26 1022.8 17.168 1020.52 17.168C1018.24 17.168 1017.53 15.26 1017.53 12.86C1017.53 10.448 1018.24 8.552 1020.52 8.552ZM1020.52 16.352C1021.84 16.352 1022.36 15.02 1022.36 12.86C1022.36 10.688 1021.84 9.368 1020.52 9.368C1019.2 9.368 1018.68 10.688 1018.68 12.86C1018.68 15.02 1019.2 16.352 1020.52 16.352ZM1027.48 8.552C1029.76 8.552 1030.47 10.448 1030.47 12.86C1030.47 15.26 1029.76 17.168 1027.48 17.168C1025.2 17.168 1024.49 15.26 1024.49 12.86C1024.49 10.448 1025.2 8.552 1027.48 8.552ZM1027.48 16.352C1028.8 16.352 1029.32 15.02 1029.32 12.86C1029.32 10.688 1028.8 9.368 1027.48 9.368C1026.16 9.368 1025.64 10.688 1025.64 12.86C1025.64 15.02 1026.16 16.352 1027.48 16.352ZM1034.44 8.552C1036.72 8.552 1037.43 10.448 1037.43 12.86C1037.43 15.26 1036.72 17.168 1034.44 17.168C1032.16 17.168 1031.45 15.26 1031.45 12.86C1031.45 10.448 1032.16 8.552 1034.44 8.552ZM1034.44 16.352C1035.76 16.352 1036.28 15.02 1036.28 12.86C1036.28 10.688 1035.76 9.368 1034.44 9.368C1033.12 9.368 1032.6 10.688 1032.6 12.86C1032.6 15.02 1033.12 16.352 1034.44 16.352Z" fill="black" fill-opacity="0.4"/>
<line x1="1029.5" y1="46" x2="1029.5" y2="41" stroke="black" stroke-opacity="0.4"/>
<line x1="1034.5" y1="46" x2="1034.5" y2="41" stroke="black" stroke-opacity="0.4"/>
<line x1="1039.5" y1="46" x2="1039.5" y2="41" stroke="black" stroke-opacity="0.4"/>
<line x1="1044.5" y1="46" x2="1044.5" y2="41" stroke="black" stroke-opacity="0.4"/>
<line x1="1049.5" y1="46" x2="1049.5" y2="33" stroke="black" stroke-opacity="0.4"/>
<line x1="1054.5" y1="46" x2="1054.5" y2="41" stroke="black" stroke-opacity="0.4"/>
<line x1="1059.5" y1="46" x2="1059.5" y2="41" stroke="black" stroke-opacity="0.4"/>
<line x1="1064.5" y1="46" x2="1064.5" y2="41" stroke="black" stroke-opacity="0.4"/>
<line x1="1069.5" y1="46" x2="1069.5" y2="41" stroke="black" stroke-opacity="0.4"/>
<line x1="1074.5" y1="46" x2="1074.5" y2="23" stroke="black" stroke-opacity="0.4"/>
<path d="M1062.3 16.16H1066.35V17H1060.8V16.412L1063.8 13.352C1064.77 12.356 1065.24 11.756 1065.24 10.952C1065.24 10.1 1064.75 9.368 1063.75 9.368C1062.68 9.368 1062.17 10.028 1062.05 11.192L1062.03 11.312H1061L1061.01 11.192C1061.18 9.464 1062.21 8.552 1063.87 8.552C1065.56 8.552 1066.39 9.596 1066.39 10.832C1066.39 11.96 1065.78 12.728 1064.37 14.108L1062.3 16.16ZM1071.91 8.72V17H1070.88V9.812L1068.6 11.168V10.076L1070.35 8.984C1070.68 8.78 1070.96 8.72 1071.25 8.72H1071.91ZM1077.48 8.552C1079.76 8.552 1080.47 10.448 1080.47 12.86C1080.47 15.26 1079.76 17.168 1077.48 17.168C1075.2 17.168 1074.49 15.26 1074.49 12.86C1074.49 10.448 1075.2 8.552 1077.48 8.552ZM1077.48 16.352C1078.8 16.352 1079.32 15.02 1079.32 12.86C1079.32 10.688 1078.8 9.368 1077.48 9.368C1076.16 9.368 1075.64 10.688 1075.64 12.86C1075.64 15.02 1076.16 16.352 1077.48 16.352ZM1084.44 8.552C1086.72 8.552 1087.43 10.448 1087.43 12.86C1087.43 15.26 1086.72 17.168 1084.44 17.168C1082.16 17.168 1081.45 15.26 1081.45 12.86C1081.45 10.448 1082.16 8.552 1084.44 8.552ZM1084.44 16.352C1085.76 16.352 1086.28 15.02 1086.28 12.86C1086.28 10.688 1085.76 9.368 1084.44 9.368C1083.12 9.368 1082.6 10.688 1082.6 12.86C1082.6 15.02 1083.12 16.352 1084.44 16.352Z" fill="black" fill-opacity="0.4"/>
<line x1="1079.5" y1="46" x2="1079.5" y2="41" stroke="black" stroke-opacity="0.4"/>
<line x1="1084.5" y1="46" x2="1084.5" y2="41" stroke="black" stroke-opacity="0.4"/>
<line x1="1089.5" y1="46" x2="1089.5" y2="41" stroke="black" stroke-opacity="0.4"/>
<line x1="1094.5" y1="46" x2="1094.5" y2="41" stroke="black" stroke-opacity="0.4"/>
<line x1="1099.5" y1="46" x2="1099.5" y2="33" stroke="black" stroke-opacity="0.4"/>
<line x1="1104.5" y1="46" x2="1104.5" y2="41" stroke="black" stroke-opacity="0.4"/>
<line x1="1109.5" y1="46" x2="1109.5" y2="41" stroke="black" stroke-opacity="0.4"/>
<line x1="1114.5" y1="46" x2="1114.5" y2="41" stroke="black" stroke-opacity="0.4"/>
<line x1="1119.5" y1="46" x2="1119.5" y2="41" stroke="black" stroke-opacity="0.4"/>
<line x1="1124.5" y1="46" x2="1124.5" y2="23" stroke="black" stroke-opacity="0.4"/>
<path d="M1112.3 16.16H1116.35V17H1110.8V16.412L1113.8 13.352C1114.77 12.356 1115.24 11.756 1115.24 10.952C1115.24 10.1 1114.75 9.368 1113.75 9.368C1112.68 9.368 1112.17 10.028 1112.05 11.192L1112.03 11.312H1111L1111.01 11.192C1111.18 9.464 1112.21 8.552 1113.87 8.552C1115.56 8.552 1116.39 9.596 1116.39 10.832C1116.39 11.96 1115.78 12.728 1114.37 14.108L1112.3 16.16ZM1119.26 16.16H1123.32V17H1117.76V16.412L1120.76 13.352C1121.73 12.356 1122.2 11.756 1122.2 10.952C1122.2 10.1 1121.71 9.368 1120.71 9.368C1119.64 9.368 1119.13 10.028 1119.01 11.192L1119 11.312H1117.96L1117.98 11.192C1118.14 9.464 1119.18 8.552 1120.83 8.552C1122.52 8.552 1123.35 9.596 1123.35 10.832C1123.35 11.96 1122.74 12.728 1121.34 14.108L1119.26 16.16ZM1127.48 8.552C1129.76 8.552 1130.47 10.448 1130.47 12.86C1130.47 15.26 1129.76 17.168 1127.48 17.168C1125.2 17.168 1124.49 15.26 1124.49 12.86C1124.49 10.448 1125.2 8.552 1127.48 8.552ZM1127.48 16.352C1128.8 16.352 1129.32 15.02 1129.32 12.86C1129.32 10.688 1128.8 9.368 1127.48 9.368C1126.16 9.368 1125.64 10.688 1125.64 12.86C1125.64 15.02 1126.16 16.352 1127.48 16.352ZM1134.44 8.552C1136.72 8.552 1137.43 10.448 1137.43 12.86C1137.43 15.26 1136.72 17.168 1134.44 17.168C1132.16 17.168 1131.45 15.26 1131.45 12.86C1131.45 10.448 1132.16 8.552 1134.44 8.552ZM1134.44 16.352C1135.76 16.352 1136.28 15.02 1136.28 12.86C1136.28 10.688 1135.76 9.368 1134.44 9.368C1133.12 9.368 1132.6 10.688 1132.6 12.86C1132.6 15.02 1133.12 16.352 1134.44 16.352Z" fill="black" fill-opacity="0.4"/>
<line x1="1129.5" y1="46" x2="1129.5" y2="41" stroke="black" stroke-opacity="0.4"/>
<line x1="1134.5" y1="46" x2="1134.5" y2="41" stroke="black" stroke-opacity="0.4"/>
<line x1="1139.5" y1="46" x2="1139.5" y2="41" stroke="black" stroke-opacity="0.4"/>
<line x1="1144.5" y1="46" x2="1144.5" y2="41" stroke="black" stroke-opacity="0.4"/>
<line x1="1149.5" y1="46" x2="1149.5" y2="33" stroke="black" stroke-opacity="0.4"/>
<line x1="1154.5" y1="46" x2="1154.5" y2="41" stroke="black" stroke-opacity="0.4"/>
<line x1="1159.5" y1="46" x2="1159.5" y2="41" stroke="black" stroke-opacity="0.4"/>
<line x1="1164.5" y1="46" x2="1164.5" y2="41" stroke="black" stroke-opacity="0.4"/>
<line x1="1169.5" y1="46" x2="1169.5" y2="41" stroke="black" stroke-opacity="0.4"/>
<line x1="1174.5" y1="46" x2="1174.5" y2="23" stroke="black" stroke-opacity="0.4"/>
<path d="M1162.3 16.16H1166.35V17H1160.8V16.412L1163.8 13.352C1164.77 12.356 1165.24 11.756 1165.24 10.952C1165.24 10.1 1164.75 9.368 1163.75 9.368C1162.68 9.368 1162.17 10.028 1162.05 11.192L1162.03 11.312H1161L1161.01 11.192C1161.18 9.464 1162.21 8.552 1163.87 8.552C1165.56 8.552 1166.39 9.596 1166.39 10.832C1166.39 11.96 1165.78 12.728 1164.37 14.108L1162.3 16.16ZM1171.79 12.596C1172.81 12.884 1173.45 13.616 1173.45 14.696C1173.45 16.244 1172.04 17.168 1170.45 17.168C1168.88 17.168 1167.77 16.46 1167.59 14.672L1167.58 14.552H1168.61L1168.62 14.672C1168.74 15.836 1169.54 16.352 1170.54 16.352C1171.56 16.352 1172.3 15.764 1172.3 14.756C1172.3 13.784 1171.67 13.232 1170.33 13.232H1170.12V12.392H1170.33C1171.31 12.392 1172.1 11.816 1172.1 10.772C1172.1 9.944 1171.52 9.368 1170.64 9.368C1169.76 9.368 1169.06 9.896 1168.95 10.988L1168.94 11.108H1167.9L1167.92 10.988C1168.07 9.488 1169.09 8.552 1170.77 8.552C1172.3 8.552 1173.26 9.404 1173.26 10.652C1173.26 11.6 1172.66 12.344 1171.79 12.596ZM1177.48 8.552C1179.76 8.552 1180.47 10.448 1180.47 12.86C1180.47 15.26 1179.76 17.168 1177.48 17.168C1175.2 17.168 1174.49 15.26 1174.49 12.86C1174.49 10.448 1175.2 8.552 1177.48 8.552ZM1177.48 16.352C1178.8 16.352 1179.32 15.02 1179.32 12.86C1179.32 10.688 1178.8 9.368 1177.48 9.368C1176.16 9.368 1175.64 10.688 1175.64 12.86C1175.64 15.02 1176.16 16.352 1177.48 16.352ZM1184.44 8.552C1186.72 8.552 1187.43 10.448 1187.43 12.86C1187.43 15.26 1186.72 17.168 1184.44 17.168C1182.16 17.168 1181.45 15.26 1181.45 12.86C1181.45 10.448 1182.16 8.552 1184.44 8.552ZM1184.44 16.352C1185.76 16.352 1186.28 15.02 1186.28 12.86C1186.28 10.688 1185.76 9.368 1184.44 9.368C1183.12 9.368 1182.6 10.688 1182.6 12.86C1182.6 15.02 1183.12 16.352 1184.44 16.352Z" fill="black" fill-opacity="0.4"/>
<line x1="1179.5" y1="46" x2="1179.5" y2="41" stroke="black" stroke-opacity="0.4"/>
<line x1="1184.5" y1="46" x2="1184.5" y2="41" stroke="black" stroke-opacity="0.4"/>
<line x1="1189.5" y1="46" x2="1189.5" y2="41" stroke="black" stroke-opacity="0.4"/>
<line x1="1194.5" y1="46" x2="1194.5" y2="41" stroke="black" stroke-opacity="0.4"/>
<line x1="1199.5" y1="46" x2="1199.5" y2="33" stroke="black" stroke-opacity="0.4"/>
<line x1="1204.5" y1="46" x2="1204.5" y2="41" stroke="black" stroke-opacity="0.4"/>
<line x1="1209.5" y1="46" x2="1209.5" y2="41" stroke="black" stroke-opacity="0.4"/>
<line x1="1214.5" y1="46" x2="1214.5" y2="41" stroke="black" stroke-opacity="0.4"/>
<line x1="1219.5" y1="46" x2="1219.5" y2="41" stroke="black" stroke-opacity="0.4"/>
<line x1="1224.5" y1="46" x2="1224.5" y2="23" stroke="black" stroke-opacity="0.4"/>
<path d="M1212.3 16.16H1216.35V17H1210.8V16.412L1213.8 13.352C1214.77 12.356 1215.24 11.756 1215.24 10.952C1215.24 10.1 1214.75 9.368 1213.75 9.368C1212.68 9.368 1212.17 10.028 1212.05 11.192L1212.03 11.312H1211L1211.01 11.192C1211.18 9.464 1212.21 8.552 1213.87 8.552C1215.56 8.552 1216.39 9.596 1216.39 10.832C1216.39 11.96 1215.78 12.728 1214.37 14.108L1212.3 16.16ZM1223.62 14.912H1222.57V17H1221.54V14.912H1217.44V14.396L1221.54 8.72H1222.57V14.072H1223.62V14.912ZM1221.54 14.072V10.1C1221.35 10.424 1221.13 10.772 1220.86 11.156L1218.74 14.072H1221.54ZM1227.48 8.552C1229.76 8.552 1230.47 10.448 1230.47 12.86C1230.47 15.26 1229.76 17.168 1227.48 17.168C1225.2 17.168 1224.49 15.26 1224.49 12.86C1224.49 10.448 1225.2 8.552 1227.48 8.552ZM1227.48 16.352C1228.8 16.352 1229.32 15.02 1229.32 12.86C1229.32 10.688 1228.8 9.368 1227.48 9.368C1226.16 9.368 1225.64 10.688 1225.64 12.86C1225.64 15.02 1226.16 16.352 1227.48 16.352ZM1234.44 8.552C1236.72 8.552 1237.43 10.448 1237.43 12.86C1237.43 15.26 1236.72 17.168 1234.44 17.168C1232.16 17.168 1231.45 15.26 1231.45 12.86C1231.45 10.448 1232.16 8.552 1234.44 8.552ZM1234.44 16.352C1235.76 16.352 1236.28 15.02 1236.28 12.86C1236.28 10.688 1235.76 9.368 1234.44 9.368C1233.12 9.368 1232.6 10.688 1232.6 12.86C1232.6 15.02 1233.12 16.352 1234.44 16.352Z" fill="black" fill-opacity="0.4"/>
<line x1="1229.5" y1="46" x2="1229.5" y2="41" stroke="black" stroke-opacity="0.4"/>
<line x1="1234.5" y1="46" x2="1234.5" y2="41" stroke="black" stroke-opacity="0.4"/>
<line x1="1239.5" y1="46" x2="1239.5" y2="41" stroke="black" stroke-opacity="0.4"/>
<line x1="1244.5" y1="46" x2="1244.5" y2="41" stroke="black" stroke-opacity="0.4"/>
<line x1="1249.5" y1="46" x2="1249.5" y2="33" stroke="black" stroke-opacity="0.4"/>
<line x1="1254.5" y1="46" x2="1254.5" y2="41" stroke="black" stroke-opacity="0.4"/>
<line x1="1259.5" y1="46" x2="1259.5" y2="41" stroke="black" stroke-opacity="0.4"/>
<line x1="1264.5" y1="46" x2="1264.5" y2="41" stroke="black" stroke-opacity="0.4"/>
<line x1="1269.5" y1="46" x2="1269.5" y2="41" stroke="black" stroke-opacity="0.4"/>
<line x1="1274.5" y1="46" x2="1274.5" y2="23" stroke="black" stroke-opacity="0.4"/>
<path d="M1262.3 16.16H1266.35V17H1260.8V16.412L1263.8 13.352C1264.77 12.356 1265.24 11.756 1265.24 10.952C1265.24 10.1 1264.75 9.368 1263.75 9.368C1262.68 9.368 1262.17 10.028 1262.05 11.192L1262.03 11.312H1261L1261.01 11.192C1261.18 9.464 1262.21 8.552 1263.87 8.552C1265.56 8.552 1266.39 9.596 1266.39 10.832C1266.39 11.96 1265.78 12.728 1264.37 14.108L1262.3 16.16ZM1270.72 11.54C1272.57 11.54 1273.48 12.74 1273.48 14.312C1273.48 16.136 1272.07 17.168 1270.53 17.168C1268.86 17.168 1267.89 16.364 1267.74 14.804L1267.72 14.684H1268.76L1268.78 14.804C1268.97 15.752 1269.49 16.352 1270.52 16.352C1271.61 16.352 1272.33 15.632 1272.33 14.384C1272.33 13.136 1271.67 12.356 1270.57 12.356C1269.8 12.356 1269.25 12.68 1268.84 13.532H1267.86L1268.43 8.72H1273.14V9.56H1269.27L1268.9 12.44L1269.42 11.888C1269.81 11.648 1270.22 11.54 1270.72 11.54ZM1277.48 8.552C1279.76 8.552 1280.47 10.448 1280.47 12.86C1280.47 15.26 1279.76 17.168 1277.48 17.168C1275.2 17.168 1274.49 15.26 1274.49 12.86C1274.49 10.448 1275.2 8.552 1277.48 8.552ZM1277.48 16.352C1278.8 16.352 1279.32 15.02 1279.32 12.86C1279.32 10.688 1278.8 9.368 1277.48 9.368C1276.16 9.368 1275.64 10.688 1275.64 12.86C1275.64 15.02 1276.16 16.352 1277.48 16.352ZM1284.44 8.552C1286.72 8.552 1287.43 10.448 1287.43 12.86C1287.43 15.26 1286.72 17.168 1284.44 17.168C1282.16 17.168 1281.45 15.26 1281.45 12.86C1281.45 10.448 1282.16 8.552 1284.44 8.552ZM1284.44 16.352C1285.76 16.352 1286.28 15.02 1286.28 12.86C1286.28 10.688 1285.76 9.368 1284.44 9.368C1283.12 9.368 1282.6 10.688 1282.6 12.86C1282.6 15.02 1283.12 16.352 1284.44 16.352Z" fill="black" fill-opacity="0.4"/>
<line x1="1279.5" y1="46" x2="1279.5" y2="41" stroke="black" stroke-opacity="0.4"/>
<line x1="1284.5" y1="46" x2="1284.5" y2="41" stroke="black" stroke-opacity="0.4"/>
<line x1="1289.5" y1="46" x2="1289.5" y2="41" stroke="black" stroke-opacity="0.4"/>
<line x1="1294.5" y1="46" x2="1294.5" y2="41" stroke="black" stroke-opacity="0.4"/>
<line x1="1299.5" y1="46" x2="1299.5" y2="33" stroke="black" stroke-opacity="0.4"/>
<line x1="1304.5" y1="46" x2="1304.5" y2="41" stroke="black" stroke-opacity="0.4"/>
<line x1="1309.5" y1="46" x2="1309.5" y2="41" stroke="black" stroke-opacity="0.4"/>
<line x1="1314.5" y1="46" x2="1314.5" y2="41" stroke="black" stroke-opacity="0.4"/>
<line x1="1319.5" y1="46" x2="1319.5" y2="41" stroke="black" stroke-opacity="0.4"/>
<line x1="1324.5" y1="46" x2="1324.5" y2="23" stroke="black" stroke-opacity="0.4"/>
<path d="M1312.3 16.16H1316.35V17H1310.8V16.412L1313.8 13.352C1314.77 12.356 1315.24 11.756 1315.24 10.952C1315.24 10.1 1314.75 9.368 1313.75 9.368C1312.68 9.368 1312.17 10.028 1312.05 11.192L1312.03 11.312H1311L1311.01 11.192C1311.18 9.464 1312.21 8.552 1313.87 8.552C1315.56 8.552 1316.39 9.596 1316.39 10.832C1316.39 11.96 1315.78 12.728 1314.37 14.108L1312.3 16.16ZM1320.66 11.408C1322.39 11.408 1323.41 12.572 1323.41 14.216C1323.41 15.98 1322.16 17.168 1320.48 17.168C1318.64 17.168 1317.56 16.004 1317.56 13.256C1317.56 9.92 1319.06 8.552 1320.76 8.552C1322.18 8.552 1323.18 9.428 1323.32 10.784L1323.33 10.904H1322.22L1322.2 10.784C1322.01 9.848 1321.52 9.368 1320.68 9.368C1319.56 9.368 1318.77 10.268 1318.68 12.68L1319.15 11.936C1319.6 11.564 1320.06 11.408 1320.66 11.408ZM1320.48 16.352C1321.52 16.352 1322.26 15.536 1322.26 14.336C1322.26 13.184 1321.74 12.224 1320.48 12.224C1319.55 12.224 1318.76 12.932 1318.76 14.312C1318.76 15.464 1319.44 16.352 1320.48 16.352ZM1327.48 8.552C1329.76 8.552 1330.47 10.448 1330.47 12.86C1330.47 15.26 1329.76 17.168 1327.48 17.168C1325.2 17.168 1324.49 15.26 1324.49 12.86C1324.49 10.448 1325.2 8.552 1327.48 8.552ZM1327.48 16.352C1328.8 16.352 1329.32 15.02 1329.32 12.86C1329.32 10.688 1328.8 9.368 1327.48 9.368C1326.16 9.368 1325.64 10.688 1325.64 12.86C1325.64 15.02 1326.16 16.352 1327.48 16.352ZM1334.44 8.552C1336.72 8.552 1337.43 10.448 1337.43 12.86C1337.43 15.26 1336.72 17.168 1334.44 17.168C1332.16 17.168 1331.45 15.26 1331.45 12.86C1331.45 10.448 1332.16 8.552 1334.44 8.552ZM1334.44 16.352C1335.76 16.352 1336.28 15.02 1336.28 12.86C1336.28 10.688 1335.76 9.368 1334.44 9.368C1333.12 9.368 1332.6 10.688 1332.6 12.86C1332.6 15.02 1333.12 16.352 1334.44 16.352Z" fill="black" fill-opacity="0.4"/>
<line x1="1329.5" y1="46" x2="1329.5" y2="41" stroke="black" stroke-opacity="0.4"/>
<line x1="1334.5" y1="46" x2="1334.5" y2="41" stroke="black" stroke-opacity="0.4"/>
<line x1="1339.5" y1="46" x2="1339.5" y2="41" stroke="black" stroke-opacity="0.4"/>
<line x1="1344.5" y1="46" x2="1344.5" y2="41" stroke="black" stroke-opacity="0.4"/>
<line x1="1349.5" y1="46" x2="1349.5" y2="33" stroke="black" stroke-opacity="0.4"/>
<line x1="1354.5" y1="46" x2="1354.5" y2="41" stroke="black" stroke-opacity="0.4"/>
<line x1="1359.5" y1="46" x2="1359.5" y2="41" stroke="black" stroke-opacity="0.4"/>
<line x1="1364.5" y1="46" x2="1364.5" y2="41" stroke="black" stroke-opacity="0.4"/>
<line x1="1369.5" y1="46" x2="1369.5" y2="41" stroke="black" stroke-opacity="0.4"/>
<line x1="1374.5" y1="46" x2="1374.5" y2="23" stroke="black" stroke-opacity="0.4"/>
<path d="M1362.3 16.16H1366.35V17H1360.8V16.412L1363.8 13.352C1364.77 12.356 1365.24 11.756 1365.24 10.952C1365.24 10.1 1364.75 9.368 1363.75 9.368C1362.68 9.368 1362.17 10.028 1362.05 11.192L1362.03 11.312H1361L1361.01 11.192C1361.18 9.464 1362.21 8.552 1363.87 8.552C1365.56 8.552 1366.39 9.596 1366.39 10.832C1366.39 11.96 1365.78 12.728 1364.37 14.108L1362.3 16.16ZM1373.5 8.72V9.2L1369.37 17H1368.26L1372.24 9.56H1367.64V8.72H1373.5ZM1377.48 8.552C1379.76 8.552 1380.47 10.448 1380.47 12.86C1380.47 15.26 1379.76 17.168 1377.48 17.168C1375.2 17.168 1374.49 15.26 1374.49 12.86C1374.49 10.448 1375.2 8.552 1377.48 8.552ZM1377.48 16.352C1378.8 16.352 1379.32 15.02 1379.32 12.86C1379.32 10.688 1378.8 9.368 1377.48 9.368C1376.16 9.368 1375.64 10.688 1375.64 12.86C1375.64 15.02 1376.16 16.352 1377.48 16.352ZM1384.44 8.552C1386.72 8.552 1387.43 10.448 1387.43 12.86C1387.43 15.26 1386.72 17.168 1384.44 17.168C1382.16 17.168 1381.45 15.26 1381.45 12.86C1381.45 10.448 1382.16 8.552 1384.44 8.552ZM1384.44 16.352C1385.76 16.352 1386.28 15.02 1386.28 12.86C1386.28 10.688 1385.76 9.368 1384.44 9.368C1383.12 9.368 1382.6 10.688 1382.6 12.86C1382.6 15.02 1383.12 16.352 1384.44 16.352Z" fill="black" fill-opacity="0.4"/>
<line x1="1379.5" y1="46" x2="1379.5" y2="41" stroke="black" stroke-opacity="0.4"/>
<line x1="1384.5" y1="46" x2="1384.5" y2="41" stroke="black" stroke-opacity="0.4"/>
<line x1="1389.5" y1="46" x2="1389.5" y2="41" stroke="black" stroke-opacity="0.4"/>
<line x1="1394.5" y1="46" x2="1394.5" y2="41" stroke="black" stroke-opacity="0.4"/>
<line x1="1399.5" y1="46" x2="1399.5" y2="33" stroke="black" stroke-opacity="0.4"/>
<line x1="1404.5" y1="46" x2="1404.5" y2="41" stroke="black" stroke-opacity="0.4"/>
<line x1="1409.5" y1="46" x2="1409.5" y2="41" stroke="black" stroke-opacity="0.4"/>
<line x1="1414.5" y1="46" x2="1414.5" y2="41" stroke="black" stroke-opacity="0.4"/>
<line x1="1419.5" y1="46" x2="1419.5" y2="41" stroke="black" stroke-opacity="0.4"/>
<line x1="1424.5" y1="46" x2="1424.5" y2="23" stroke="black" stroke-opacity="0.4"/>
<path d="M1412.3 16.16H1416.35V17H1410.8V16.412L1413.8 13.352C1414.77 12.356 1415.24 11.756 1415.24 10.952C1415.24 10.1 1414.75 9.368 1413.75 9.368C1412.68 9.368 1412.17 10.028 1412.05 11.192L1412.03 11.312H1411L1411.01 11.192C1411.18 9.464 1412.21 8.552 1413.87 8.552C1415.56 8.552 1416.39 9.596 1416.39 10.832C1416.39 11.96 1415.78 12.728 1414.37 14.108L1412.3 16.16ZM1421.89 12.62C1422.78 12.908 1423.47 13.688 1423.47 14.684C1423.47 16.496 1421.97 17.18 1420.52 17.18C1418.95 17.18 1417.57 16.496 1417.57 14.684C1417.57 13.688 1418.32 12.908 1419.21 12.632C1418.47 12.344 1417.93 11.684 1417.93 10.784C1417.93 9.416 1418.97 8.552 1420.59 8.552C1422.21 8.552 1423.26 9.416 1423.26 10.784C1423.26 11.696 1422.66 12.344 1421.89 12.62ZM1420.59 9.368C1419.55 9.368 1419.04 10.028 1419.04 10.82C1419.04 11.66 1419.55 12.296 1420.58 12.296C1421.61 12.296 1422.14 11.66 1422.14 10.82C1422.14 10.028 1421.64 9.368 1420.59 9.368ZM1420.54 16.364C1421.76 16.364 1422.32 15.68 1422.32 14.732C1422.32 13.88 1421.82 13.112 1420.53 13.112C1419.25 13.112 1418.72 13.88 1418.72 14.732C1418.72 15.68 1419.33 16.364 1420.54 16.364ZM1427.48 8.552C1429.76 8.552 1430.47 10.448 1430.47 12.86C1430.47 15.26 1429.76 17.168 1427.48 17.168C1425.2 17.168 1424.49 15.26 1424.49 12.86C1424.49 10.448 1425.2 8.552 1427.48 8.552ZM1427.48 16.352C1428.8 16.352 1429.32 15.02 1429.32 12.86C1429.32 10.688 1428.8 9.368 1427.48 9.368C1426.16 9.368 1425.64 10.688 1425.64 12.86C1425.64 15.02 1426.16 16.352 1427.48 16.352ZM1434.44 8.552C1436.72 8.552 1437.43 10.448 1437.43 12.86C1437.43 15.26 1436.72 17.168 1434.44 17.168C1432.16 17.168 1431.45 15.26 1431.45 12.86C1431.45 10.448 1432.16 8.552 1434.44 8.552ZM1434.44 16.352C1435.76 16.352 1436.28 15.02 1436.28 12.86C1436.28 10.688 1435.76 9.368 1434.44 9.368C1433.12 9.368 1432.6 10.688 1432.6 12.86C1432.6 15.02 1433.12 16.352 1434.44 16.352Z" fill="black" fill-opacity="0.4"/>
<line x1="1429.5" y1="46" x2="1429.5" y2="41" stroke="black" stroke-opacity="0.4"/>
<line x1="1434.5" y1="46" x2="1434.5" y2="41" stroke="black" stroke-opacity="0.4"/>
<line x1="1439.5" y1="46" x2="1439.5" y2="41" stroke="black" stroke-opacity="0.4"/>
<line x1="1444.5" y1="46" x2="1444.5" y2="41" stroke="black" stroke-opacity="0.4"/>
<line x1="1449.5" y1="46" x2="1449.5" y2="33" stroke="black" stroke-opacity="0.4"/>
<line x1="1454.5" y1="46" x2="1454.5" y2="41" stroke="black" stroke-opacity="0.4"/>
<line x1="1459.5" y1="46" x2="1459.5" y2="41" stroke="black" stroke-opacity="0.4"/>
<line x1="1464.5" y1="46" x2="1464.5" y2="41" stroke="black" stroke-opacity="0.4"/>
<line x1="1469.5" y1="46" x2="1469.5" y2="41" stroke="black" stroke-opacity="0.4"/>
<line x1="1474.5" y1="46" x2="1474.5" y2="23" stroke="black" stroke-opacity="0.4"/>
<path d="M1462.3 16.16H1466.35V17H1460.8V16.412L1463.8 13.352C1464.77 12.356 1465.24 11.756 1465.24 10.952C1465.24 10.1 1464.75 9.368 1463.75 9.368C1462.68 9.368 1462.17 10.028 1462.05 11.192L1462.03 11.312H1461L1461.01 11.192C1461.18 9.464 1462.21 8.552 1463.87 8.552C1465.56 8.552 1466.39 9.596 1466.39 10.832C1466.39 11.96 1465.78 12.728 1464.37 14.108L1462.3 16.16ZM1470.56 8.552C1472.4 8.552 1473.48 9.716 1473.48 12.464C1473.48 15.8 1471.98 17.168 1470.28 17.168C1468.86 17.168 1467.86 16.292 1467.72 14.936L1467.71 14.816H1468.82L1468.84 14.936C1469.03 15.872 1469.52 16.352 1470.36 16.352C1471.48 16.352 1472.27 15.452 1472.36 13.04L1471.89 13.784C1471.44 14.156 1470.98 14.312 1470.38 14.312C1468.65 14.312 1467.63 13.148 1467.63 11.504C1467.63 9.74 1468.88 8.552 1470.56 8.552ZM1470.56 13.496C1471.49 13.496 1472.28 12.788 1472.28 11.408C1472.28 10.256 1471.6 9.368 1470.56 9.368C1469.52 9.368 1468.78 10.184 1468.78 11.384C1468.78 12.536 1469.3 13.496 1470.56 13.496ZM1477.48 8.552C1479.76 8.552 1480.47 10.448 1480.47 12.86C1480.47 15.26 1479.76 17.168 1477.48 17.168C1475.2 17.168 1474.49 15.26 1474.49 12.86C1474.49 10.448 1475.2 8.552 1477.48 8.552ZM1477.48 16.352C1478.8 16.352 1479.32 15.02 1479.32 12.86C1479.32 10.688 1478.8 9.368 1477.48 9.368C1476.16 9.368 1475.64 10.688 1475.64 12.86C1475.64 15.02 1476.16 16.352 1477.48 16.352ZM1484.44 8.552C1486.72 8.552 1487.43 10.448 1487.43 12.86C1487.43 15.26 1486.72 17.168 1484.44 17.168C1482.16 17.168 1481.45 15.26 1481.45 12.86C1481.45 10.448 1482.16 8.552 1484.44 8.552ZM1484.44 16.352C1485.76 16.352 1486.28 15.02 1486.28 12.86C1486.28 10.688 1485.76 9.368 1484.44 9.368C1483.12 9.368 1482.6 10.688 1482.6 12.86C1482.6 15.02 1483.12 16.352 1484.44 16.352Z" fill="black" fill-opacity="0.4"/>
<line x1="1479.5" y1="46" x2="1479.5" y2="41" stroke="black" stroke-opacity="0.4"/>
<line x1="1484.5" y1="46" x2="1484.5" y2="41" stroke="black" stroke-opacity="0.4"/>
<line x1="1489.5" y1="46" x2="1489.5" y2="41" stroke="black" stroke-opacity="0.4"/>
<line x1="1494.5" y1="46" x2="1494.5" y2="41" stroke="black" stroke-opacity="0.4"/>
<line x1="1499.5" y1="46" x2="1499.5" y2="33" stroke="black" stroke-opacity="0.4"/>
<line x1="1504.5" y1="46" x2="1504.5" y2="41" stroke="black" stroke-opacity="0.4"/>
<line x1="1509.5" y1="46" x2="1509.5" y2="41" stroke="black" stroke-opacity="0.4"/>
<line x1="1514.5" y1="46" x2="1514.5" y2="41" stroke="black" stroke-opacity="0.4"/>
<line x1="1519.5" y1="46" x2="1519.5" y2="41" stroke="black" stroke-opacity="0.4"/>
<line x1="1524.5" y1="46" x2="1524.5" y2="23" stroke="black" stroke-opacity="0.4"/>
<path d="M1514.83 12.596C1515.85 12.884 1516.49 13.616 1516.49 14.696C1516.49 16.244 1515.08 17.168 1513.49 17.168C1511.91 17.168 1510.81 16.46 1510.63 14.672L1510.62 14.552H1511.65L1511.66 14.672C1511.78 15.836 1512.57 16.352 1513.58 16.352C1514.6 16.352 1515.33 15.764 1515.33 14.756C1515.33 13.784 1514.71 13.232 1513.37 13.232H1513.16V12.392H1513.37C1514.35 12.392 1515.14 11.816 1515.14 10.772C1515.14 9.944 1514.55 9.368 1513.68 9.368C1512.8 9.368 1512.09 9.896 1511.99 10.988L1511.97 11.108H1510.94L1510.95 10.988C1511.11 9.488 1512.13 8.552 1513.81 8.552C1515.33 8.552 1516.29 9.404 1516.29 10.652C1516.29 11.6 1515.69 12.344 1514.83 12.596ZM1520.52 8.552C1522.8 8.552 1523.51 10.448 1523.51 12.86C1523.51 15.26 1522.8 17.168 1520.52 17.168C1518.24 17.168 1517.53 15.26 1517.53 12.86C1517.53 10.448 1518.24 8.552 1520.52 8.552ZM1520.52 16.352C1521.84 16.352 1522.36 15.02 1522.36 12.86C1522.36 10.688 1521.84 9.368 1520.52 9.368C1519.2 9.368 1518.68 10.688 1518.68 12.86C1518.68 15.02 1519.2 16.352 1520.52 16.352ZM1527.48 8.552C1529.76 8.552 1530.47 10.448 1530.47 12.86C1530.47 15.26 1529.76 17.168 1527.48 17.168C1525.2 17.168 1524.49 15.26 1524.49 12.86C1524.49 10.448 1525.2 8.552 1527.48 8.552ZM1527.48 16.352C1528.8 16.352 1529.32 15.02 1529.32 12.86C1529.32 10.688 1528.8 9.368 1527.48 9.368C1526.16 9.368 1525.64 10.688 1525.64 12.86C1525.64 15.02 1526.16 16.352 1527.48 16.352ZM1534.44 8.552C1536.72 8.552 1537.43 10.448 1537.43 12.86C1537.43 15.26 1536.72 17.168 1534.44 17.168C1532.16 17.168 1531.45 15.26 1531.45 12.86C1531.45 10.448 1532.16 8.552 1534.44 8.552ZM1534.44 16.352C1535.76 16.352 1536.28 15.02 1536.28 12.86C1536.28 10.688 1535.76 9.368 1534.44 9.368C1533.12 9.368 1532.6 10.688 1532.6 12.86C1532.6 15.02 1533.12 16.352 1534.44 16.352Z" fill="black" fill-opacity="0.4"/>
<line x1="1529.5" y1="46" x2="1529.5" y2="41" stroke="black" stroke-opacity="0.4"/>
<line x1="1534.5" y1="46" x2="1534.5" y2="41" stroke="black" stroke-opacity="0.4"/>
<line x1="1539.5" y1="46" x2="1539.5" y2="41" stroke="black" stroke-opacity="0.4"/>
<line x1="1544.5" y1="46" x2="1544.5" y2="41" stroke="black" stroke-opacity="0.4"/>
<line x1="1549.5" y1="46" x2="1549.5" y2="33" stroke="black" stroke-opacity="0.4"/>
<line x1="1554.5" y1="46" x2="1554.5" y2="41" stroke="black" stroke-opacity="0.4"/>
<line x1="1559.5" y1="46" x2="1559.5" y2="41" stroke="black" stroke-opacity="0.4"/>
<line x1="1564.5" y1="46" x2="1564.5" y2="41" stroke="black" stroke-opacity="0.4"/>
<line x1="1569.5" y1="46" x2="1569.5" y2="41" stroke="black" stroke-opacity="0.4"/>
<line x1="1574.5" y1="46" x2="1574.5" y2="23" stroke="black" stroke-opacity="0.4"/>
<path d="M1564.83 12.596C1565.85 12.884 1566.49 13.616 1566.49 14.696C1566.49 16.244 1565.08 17.168 1563.49 17.168C1561.91 17.168 1560.81 16.46 1560.63 14.672L1560.62 14.552H1561.65L1561.66 14.672C1561.78 15.836 1562.57 16.352 1563.58 16.352C1564.6 16.352 1565.33 15.764 1565.33 14.756C1565.33 13.784 1564.71 13.232 1563.37 13.232H1563.16V12.392H1563.37C1564.35 12.392 1565.14 11.816 1565.14 10.772C1565.14 9.944 1564.55 9.368 1563.68 9.368C1562.8 9.368 1562.09 9.896 1561.99 10.988L1561.97 11.108H1560.94L1560.95 10.988C1561.11 9.488 1562.13 8.552 1563.81 8.552C1565.33 8.552 1566.29 9.404 1566.29 10.652C1566.29 11.6 1565.69 12.344 1564.83 12.596ZM1571.91 8.72V17H1570.88V9.812L1568.6 11.168V10.076L1570.35 8.984C1570.68 8.78 1570.96 8.72 1571.25 8.72H1571.91ZM1577.48 8.552C1579.76 8.552 1580.47 10.448 1580.47 12.86C1580.47 15.26 1579.76 17.168 1577.48 17.168C1575.2 17.168 1574.49 15.26 1574.49 12.86C1574.49 10.448 1575.2 8.552 1577.48 8.552ZM1577.48 16.352C1578.8 16.352 1579.32 15.02 1579.32 12.86C1579.32 10.688 1578.8 9.368 1577.48 9.368C1576.16 9.368 1575.64 10.688 1575.64 12.86C1575.64 15.02 1576.16 16.352 1577.48 16.352ZM1584.44 8.552C1586.72 8.552 1587.43 10.448 1587.43 12.86C1587.43 15.26 1586.72 17.168 1584.44 17.168C1582.16 17.168 1581.45 15.26 1581.45 12.86C1581.45 10.448 1582.16 8.552 1584.44 8.552ZM1584.44 16.352C1585.76 16.352 1586.28 15.02 1586.28 12.86C1586.28 10.688 1585.76 9.368 1584.44 9.368C1583.12 9.368 1582.6 10.688 1582.6 12.86C1582.6 15.02 1583.12 16.352 1584.44 16.352Z" fill="black" fill-opacity="0.4"/>
<line x1="1579.5" y1="46" x2="1579.5" y2="41" stroke="black" stroke-opacity="0.4"/>
<line x1="1584.5" y1="46" x2="1584.5" y2="41" stroke="black" stroke-opacity="0.4"/>
<line x1="1589.5" y1="46" x2="1589.5" y2="41" stroke="black" stroke-opacity="0.4"/>
<line x1="1594.5" y1="46" x2="1594.5" y2="41" stroke="black" stroke-opacity="0.4"/>
<line x1="1599.5" y1="46" x2="1599.5" y2="33" stroke="black" stroke-opacity="0.4"/>
<line x1="1604.5" y1="46" x2="1604.5" y2="41" stroke="black" stroke-opacity="0.4"/>
<line x1="1609.5" y1="46" x2="1609.5" y2="41" stroke="black" stroke-opacity="0.4"/>
<line x1="1614.5" y1="46" x2="1614.5" y2="41" stroke="black" stroke-opacity="0.4"/>
<line x1="1619.5" y1="46" x2="1619.5" y2="41" stroke="black" stroke-opacity="0.4"/>
<line x1="1624.5" y1="46" x2="1624.5" y2="23" stroke="black" stroke-opacity="0.4"/>
<path d="M1614.83 12.596C1615.85 12.884 1616.49 13.616 1616.49 14.696C1616.49 16.244 1615.08 17.168 1613.49 17.168C1611.91 17.168 1610.81 16.46 1610.63 14.672L1610.62 14.552H1611.65L1611.66 14.672C1611.78 15.836 1612.57 16.352 1613.58 16.352C1614.6 16.352 1615.33 15.764 1615.33 14.756C1615.33 13.784 1614.71 13.232 1613.37 13.232H1613.16V12.392H1613.37C1614.35 12.392 1615.14 11.816 1615.14 10.772C1615.14 9.944 1614.55 9.368 1613.68 9.368C1612.8 9.368 1612.09 9.896 1611.99 10.988L1611.97 11.108H1610.94L1610.95 10.988C1611.11 9.488 1612.13 8.552 1613.81 8.552C1615.33 8.552 1616.29 9.404 1616.29 10.652C1616.29 11.6 1615.69 12.344 1614.83 12.596ZM1619.26 16.16H1623.32V17H1617.76V16.412L1620.76 13.352C1621.73 12.356 1622.2 11.756 1622.2 10.952C1622.2 10.1 1621.71 9.368 1620.71 9.368C1619.64 9.368 1619.13 10.028 1619.01 11.192L1619 11.312H1617.96L1617.98 11.192C1618.14 9.464 1619.18 8.552 1620.83 8.552C1622.52 8.552 1623.35 9.596 1623.35 10.832C1623.35 11.96 1622.74 12.728 1621.34 14.108L1619.26 16.16ZM1627.48 8.552C1629.76 8.552 1630.47 10.448 1630.47 12.86C1630.47 15.26 1629.76 17.168 1627.48 17.168C1625.2 17.168 1624.49 15.26 1624.49 12.86C1624.49 10.448 1625.2 8.552 1627.48 8.552ZM1627.48 16.352C1628.8 16.352 1629.32 15.02 1629.32 12.86C1629.32 10.688 1628.8 9.368 1627.48 9.368C1626.16 9.368 1625.64 10.688 1625.64 12.86C1625.64 15.02 1626.16 16.352 1627.48 16.352ZM1634.44 8.552C1636.72 8.552 1637.43 10.448 1637.43 12.86C1637.43 15.26 1636.72 17.168 1634.44 17.168C1632.16 17.168 1631.45 15.26 1631.45 12.86C1631.45 10.448 1632.16 8.552 1634.44 8.552ZM1634.44 16.352C1635.76 16.352 1636.28 15.02 1636.28 12.86C1636.28 10.688 1635.76 9.368 1634.44 9.368C1633.12 9.368 1632.6 10.688 1632.6 12.86C1632.6 15.02 1633.12 16.352 1634.44 16.352Z" fill="black" fill-opacity="0.4"/>
<line x1="1629.5" y1="46" x2="1629.5" y2="41" stroke="black" stroke-opacity="0.4"/>
<line x1="1634.5" y1="46" x2="1634.5" y2="41" stroke="black" stroke-opacity="0.4"/>
<line x1="1639.5" y1="46" x2="1639.5" y2="41" stroke="black" stroke-opacity="0.4"/>
<line x1="1644.5" y1="46" x2="1644.5" y2="41" stroke="black" stroke-opacity="0.4"/>
<line x1="1649.5" y1="46" x2="1649.5" y2="33" stroke="black" stroke-opacity="0.4"/>
<line x1="1654.5" y1="46" x2="1654.5" y2="41" stroke="black" stroke-opacity="0.4"/>
<line x1="1659.5" y1="46" x2="1659.5" y2="41" stroke="black" stroke-opacity="0.4"/>
<line x1="1664.5" y1="46" x2="1664.5" y2="41" stroke="black" stroke-opacity="0.4"/>
<line x1="1669.5" y1="46" x2="1669.5" y2="41" stroke="black" stroke-opacity="0.4"/>
<line x1="1674.5" y1="46" x2="1674.5" y2="23" stroke="black" stroke-opacity="0.4"/>
<path d="M1664.83 12.596C1665.85 12.884 1666.49 13.616 1666.49 14.696C1666.49 16.244 1665.08 17.168 1663.49 17.168C1661.91 17.168 1660.81 16.46 1660.63 14.672L1660.62 14.552H1661.65L1661.66 14.672C1661.78 15.836 1662.57 16.352 1663.58 16.352C1664.6 16.352 1665.33 15.764 1665.33 14.756C1665.33 13.784 1664.71 13.232 1663.37 13.232H1663.16V12.392H1663.37C1664.35 12.392 1665.14 11.816 1665.14 10.772C1665.14 9.944 1664.55 9.368 1663.68 9.368C1662.8 9.368 1662.09 9.896 1661.99 10.988L1661.97 11.108H1660.94L1660.95 10.988C1661.11 9.488 1662.13 8.552 1663.81 8.552C1665.33 8.552 1666.29 9.404 1666.29 10.652C1666.29 11.6 1665.69 12.344 1664.83 12.596ZM1671.79 12.596C1672.81 12.884 1673.45 13.616 1673.45 14.696C1673.45 16.244 1672.04 17.168 1670.45 17.168C1668.88 17.168 1667.77 16.46 1667.59 14.672L1667.58 14.552H1668.61L1668.62 14.672C1668.74 15.836 1669.54 16.352 1670.54 16.352C1671.56 16.352 1672.3 15.764 1672.3 14.756C1672.3 13.784 1671.67 13.232 1670.33 13.232H1670.12V12.392H1670.33C1671.31 12.392 1672.1 11.816 1672.1 10.772C1672.1 9.944 1671.52 9.368 1670.64 9.368C1669.76 9.368 1669.06 9.896 1668.95 10.988L1668.94 11.108H1667.9L1667.92 10.988C1668.07 9.488 1669.09 8.552 1670.77 8.552C1672.3 8.552 1673.26 9.404 1673.26 10.652C1673.26 11.6 1672.66 12.344 1671.79 12.596ZM1677.48 8.552C1679.76 8.552 1680.47 10.448 1680.47 12.86C1680.47 15.26 1679.76 17.168 1677.48 17.168C1675.2 17.168 1674.49 15.26 1674.49 12.86C1674.49 10.448 1675.2 8.552 1677.48 8.552ZM1677.48 16.352C1678.8 16.352 1679.32 15.02 1679.32 12.86C1679.32 10.688 1678.8 9.368 1677.48 9.368C1676.16 9.368 1675.64 10.688 1675.64 12.86C1675.64 15.02 1676.16 16.352 1677.48 16.352ZM1684.44 8.552C1686.72 8.552 1687.43 10.448 1687.43 12.86C1687.43 15.26 1686.72 17.168 1684.44 17.168C1682.16 17.168 1681.45 15.26 1681.45 12.86C1681.45 10.448 1682.16 8.552 1684.44 8.552ZM1684.44 16.352C1685.76 16.352 1686.28 15.02 1686.28 12.86C1686.28 10.688 1685.76 9.368 1684.44 9.368C1683.12 9.368 1682.6 10.688 1682.6 12.86C1682.6 15.02 1683.12 16.352 1684.44 16.352Z" fill="black" fill-opacity="0.4"/>
<line x1="1679.5" y1="46" x2="1679.5" y2="41" stroke="black" stroke-opacity="0.4"/>
<line x1="1684.5" y1="46" x2="1684.5" y2="41" stroke="black" stroke-opacity="0.4"/>
<line x1="1689.5" y1="46" x2="1689.5" y2="41" stroke="black" stroke-opacity="0.4"/>
<line x1="1694.5" y1="46" x2="1694.5" y2="41" stroke="black" stroke-opacity="0.4"/>
<line x1="1699.5" y1="46" x2="1699.5" y2="33" stroke="black" stroke-opacity="0.4"/>
<line x1="1704.5" y1="46" x2="1704.5" y2="41" stroke="black" stroke-opacity="0.4"/>
<line x1="1709.5" y1="46" x2="1709.5" y2="41" stroke="black" stroke-opacity="0.4"/>
<line x1="1714.5" y1="46" x2="1714.5" y2="41" stroke="black" stroke-opacity="0.4"/>
<line x1="1719.5" y1="46" x2="1719.5" y2="41" stroke="black" stroke-opacity="0.4"/>
<line x1="1724.5" y1="46" x2="1724.5" y2="23" stroke="black" stroke-opacity="0.4"/>
<path d="M1714.83 12.596C1715.85 12.884 1716.49 13.616 1716.49 14.696C1716.49 16.244 1715.08 17.168 1713.49 17.168C1711.91 17.168 1710.81 16.46 1710.63 14.672L1710.62 14.552H1711.65L1711.66 14.672C1711.78 15.836 1712.57 16.352 1713.58 16.352C1714.6 16.352 1715.33 15.764 1715.33 14.756C1715.33 13.784 1714.71 13.232 1713.37 13.232H1713.16V12.392H1713.37C1714.35 12.392 1715.14 11.816 1715.14 10.772C1715.14 9.944 1714.55 9.368 1713.68 9.368C1712.8 9.368 1712.09 9.896 1711.99 10.988L1711.97 11.108H1710.94L1710.95 10.988C1711.11 9.488 1712.13 8.552 1713.81 8.552C1715.33 8.552 1716.29 9.404 1716.29 10.652C1716.29 11.6 1715.69 12.344 1714.83 12.596ZM1723.62 14.912H1722.57V17H1721.54V14.912H1717.44V14.396L1721.54 8.72H1722.57V14.072H1723.62V14.912ZM1721.54 14.072V10.1C1721.35 10.424 1721.13 10.772 1720.86 11.156L1718.74 14.072H1721.54ZM1727.48 8.552C1729.76 8.552 1730.47 10.448 1730.47 12.86C1730.47 15.26 1729.76 17.168 1727.48 17.168C1725.2 17.168 1724.49 15.26 1724.49 12.86C1724.49 10.448 1725.2 8.552 1727.48 8.552ZM1727.48 16.352C1728.8 16.352 1729.32 15.02 1729.32 12.86C1729.32 10.688 1728.8 9.368 1727.48 9.368C1726.16 9.368 1725.64 10.688 1725.64 12.86C1725.64 15.02 1726.16 16.352 1727.48 16.352ZM1734.44 8.552C1736.72 8.552 1737.43 10.448 1737.43 12.86C1737.43 15.26 1736.72 17.168 1734.44 17.168C1732.16 17.168 1731.45 15.26 1731.45 12.86C1731.45 10.448 1732.16 8.552 1734.44 8.552ZM1734.44 16.352C1735.76 16.352 1736.28 15.02 1736.28 12.86C1736.28 10.688 1735.76 9.368 1734.44 9.368C1733.12 9.368 1732.6 10.688 1732.6 12.86C1732.6 15.02 1733.12 16.352 1734.44 16.352Z" fill="black" fill-opacity="0.4"/>
<line x1="24.5" y1="46" x2="24.5" y2="23" stroke="black" stroke-opacity="0.4"/>
<path d="M24.48 8.552C26.76 8.552 27.468 10.448 27.468 12.86C27.468 15.26 26.76 17.168 24.48 17.168C22.2 17.168 21.492 15.26 21.492 12.86C21.492 10.448 22.2 8.552 24.48 8.552ZM24.48 16.352C25.8 16.352 26.316 15.02 26.316 12.86C26.316 10.688 25.8 9.368 24.48 9.368C23.16 9.368 22.644 10.688 22.644 12.86C22.644 15.02 23.16 16.352 24.48 16.352Z" fill="black" fill-opacity="0.4"/>
</svg>
